%TF.GenerationSoftware,KiCad,Pcbnew,9.0.1*%
%TF.CreationDate,2025-04-20T00:02:55-06:00*%
%TF.ProjectId,PCBv1,50434276-312e-46b6-9963-61645f706362,rev?*%
%TF.SameCoordinates,Original*%
%TF.FileFunction,Soldermask,Bot*%
%TF.FilePolarity,Negative*%
%FSLAX46Y46*%
G04 Gerber Fmt 4.6, Leading zero omitted, Abs format (unit mm)*
G04 Created by KiCad (PCBNEW 9.0.1) date 2025-04-20 00:02:55*
%MOMM*%
%LPD*%
G01*
G04 APERTURE LIST*
G04 Aperture macros list*
%AMRoundRect*
0 Rectangle with rounded corners*
0 $1 Rounding radius*
0 $2 $3 $4 $5 $6 $7 $8 $9 X,Y pos of 4 corners*
0 Add a 4 corners polygon primitive as box body*
4,1,4,$2,$3,$4,$5,$6,$7,$8,$9,$2,$3,0*
0 Add four circle primitives for the rounded corners*
1,1,$1+$1,$2,$3*
1,1,$1+$1,$4,$5*
1,1,$1+$1,$6,$7*
1,1,$1+$1,$8,$9*
0 Add four rect primitives between the rounded corners*
20,1,$1+$1,$2,$3,$4,$5,0*
20,1,$1+$1,$4,$5,$6,$7,0*
20,1,$1+$1,$6,$7,$8,$9,0*
20,1,$1+$1,$8,$9,$2,$3,0*%
G04 Aperture macros list end*
%ADD10C,1.750000*%
%ADD11C,3.987800*%
%ADD12C,2.250000*%
%ADD13C,3.048000*%
%ADD14RoundRect,0.225000X0.375000X-0.225000X0.375000X0.225000X-0.375000X0.225000X-0.375000X-0.225000X0*%
%ADD15RoundRect,0.250000X0.350000X0.450000X-0.350000X0.450000X-0.350000X-0.450000X0.350000X-0.450000X0*%
%ADD16RoundRect,0.250000X0.337500X0.475000X-0.337500X0.475000X-0.337500X-0.475000X0.337500X-0.475000X0*%
%ADD17RoundRect,0.250000X-0.475000X0.337500X-0.475000X-0.337500X0.475000X-0.337500X0.475000X0.337500X0*%
%ADD18RoundRect,0.175000X0.175000X0.325000X-0.175000X0.325000X-0.175000X-0.325000X0.175000X-0.325000X0*%
%ADD19RoundRect,0.150000X0.200000X0.150000X-0.200000X0.150000X-0.200000X-0.150000X0.200000X-0.150000X0*%
%ADD20R,1.100000X1.800000*%
%ADD21C,1.700000*%
%ADD22R,1.700000X1.700000*%
%ADD23RoundRect,0.250001X0.624999X-0.462499X0.624999X0.462499X-0.624999X0.462499X-0.624999X-0.462499X0*%
%ADD24RoundRect,0.250000X-0.337500X-0.475000X0.337500X-0.475000X0.337500X0.475000X-0.337500X0.475000X0*%
%ADD25RoundRect,0.250000X0.475000X-0.337500X0.475000X0.337500X-0.475000X0.337500X-0.475000X-0.337500X0*%
%ADD26RoundRect,0.250000X-0.350000X-0.450000X0.350000X-0.450000X0.350000X0.450000X-0.350000X0.450000X0*%
%ADD27R,0.550000X1.500000*%
%ADD28R,1.500000X0.550000*%
%ADD29RoundRect,0.250000X-0.450000X0.350000X-0.450000X-0.350000X0.450000X-0.350000X0.450000X0.350000X0*%
%ADD30C,0.650000*%
%ADD31R,0.600000X2.450000*%
%ADD32R,0.300000X2.450000*%
%ADD33R,1.800000X2.100000*%
G04 APERTURE END LIST*
D10*
%TO.C,SW61*%
X98901250Y-149225000D03*
D11*
X103981250Y-149225000D03*
D10*
X109061250Y-149225000D03*
D12*
X100171250Y-146685000D03*
X106521250Y-144145000D03*
%TD*%
D10*
%TO.C,SW24*%
X215582500Y-92075000D03*
D11*
X220662500Y-92075000D03*
D10*
X225742500Y-92075000D03*
D12*
X216852500Y-89535000D03*
X223202500Y-86995000D03*
%TD*%
D10*
%TO.C,SW26*%
X253682500Y-92075000D03*
D11*
X258762500Y-92075000D03*
D10*
X263842500Y-92075000D03*
D12*
X254952500Y-89535000D03*
X261302500Y-86995000D03*
%TD*%
D10*
%TO.C,SW27*%
X272732500Y-92075000D03*
D11*
X277812500Y-92075000D03*
D10*
X282892500Y-92075000D03*
D12*
X274002500Y-89535000D03*
X280352500Y-86995000D03*
%TD*%
D10*
%TO.C,SW41*%
X258445000Y-111125000D03*
D11*
X263525000Y-111125000D03*
D10*
X268605000Y-111125000D03*
D12*
X259715000Y-108585000D03*
X266065000Y-106045000D03*
%TD*%
D10*
%TO.C,SW67*%
X320357500Y-149225000D03*
D11*
X325437500Y-149225000D03*
D10*
X330517500Y-149225000D03*
D12*
X321627500Y-146685000D03*
X327977500Y-144145000D03*
%TD*%
D10*
%TO.C,SW56*%
X287020000Y-130175000D03*
D11*
X292100000Y-130175000D03*
D10*
X297180000Y-130175000D03*
D12*
X288290000Y-127635000D03*
X294640000Y-125095000D03*
%TD*%
D10*
%TO.C,SW52*%
X210820000Y-130175000D03*
D11*
X215900000Y-130175000D03*
D10*
X220980000Y-130175000D03*
D12*
X212090000Y-127635000D03*
X218440000Y-125095000D03*
%TD*%
D10*
%TO.C,SW42*%
X277495000Y-111125000D03*
D11*
X282575000Y-111125000D03*
D10*
X287655000Y-111125000D03*
D12*
X278765000Y-108585000D03*
X285115000Y-106045000D03*
%TD*%
D10*
%TO.C,SW3*%
X91757500Y-73025000D03*
D11*
X96837500Y-73025000D03*
D10*
X101917500Y-73025000D03*
D12*
X93027500Y-70485000D03*
X99377500Y-67945000D03*
%TD*%
D10*
%TO.C,SW68*%
X339407500Y-149225000D03*
D11*
X344487500Y-149225000D03*
D10*
X349567500Y-149225000D03*
D12*
X340677500Y-146685000D03*
X347027500Y-144145000D03*
%TD*%
D10*
%TO.C,SW59*%
X358457500Y-130175000D03*
D11*
X363537500Y-130175000D03*
D10*
X368617500Y-130175000D03*
D12*
X359727500Y-127635000D03*
X366077500Y-125095000D03*
%TD*%
D10*
%TO.C,SW31*%
X358457500Y-92075000D03*
D11*
X363537500Y-92075000D03*
D10*
X368617500Y-92075000D03*
D12*
X359727500Y-89535000D03*
X366077500Y-86995000D03*
%TD*%
D10*
%TO.C,SW34*%
X125095000Y-111125000D03*
D11*
X130175000Y-111125000D03*
D10*
X135255000Y-111125000D03*
D12*
X126365000Y-108585000D03*
X132715000Y-106045000D03*
%TD*%
D10*
%TO.C,SW16*%
X358457500Y-73025000D03*
D11*
X363537500Y-73025000D03*
D10*
X368617500Y-73025000D03*
D12*
X359727500Y-70485000D03*
X366077500Y-67945000D03*
%TD*%
D10*
%TO.C,SW66*%
X301307500Y-149225000D03*
D11*
X306387500Y-149225000D03*
D10*
X311467500Y-149225000D03*
D12*
X302577500Y-146685000D03*
X308927500Y-144145000D03*
%TD*%
D10*
%TO.C,SW6*%
X148907500Y-73025000D03*
D11*
X153987500Y-73025000D03*
D10*
X159067500Y-73025000D03*
D12*
X150177500Y-70485000D03*
X156527500Y-67945000D03*
%TD*%
D10*
%TO.C,SW18*%
X101282500Y-92075000D03*
D11*
X106362500Y-92075000D03*
D10*
X111442500Y-92075000D03*
D12*
X102552500Y-89535000D03*
X108902500Y-86995000D03*
%TD*%
D10*
%TO.C,SW8*%
X187007500Y-73025000D03*
D11*
X192087500Y-73025000D03*
D10*
X197167500Y-73025000D03*
D12*
X188277500Y-70485000D03*
X194627500Y-67945000D03*
%TD*%
D10*
%TO.C,SW22*%
X177482500Y-92075000D03*
D11*
X182562500Y-92075000D03*
D10*
X187642500Y-92075000D03*
D12*
X178752500Y-89535000D03*
X185102500Y-86995000D03*
%TD*%
D10*
%TO.C,SW40*%
X239395000Y-111125000D03*
D11*
X244475000Y-111125000D03*
D10*
X249555000Y-111125000D03*
D12*
X240665000Y-108585000D03*
X247015000Y-106045000D03*
%TD*%
D10*
%TO.C,SW53*%
X229870000Y-130175000D03*
D11*
X234950000Y-130175000D03*
D10*
X240030000Y-130175000D03*
D12*
X231140000Y-127635000D03*
X237490000Y-125095000D03*
%TD*%
D13*
%TO.C,SW15*%
X323056250Y-66040000D03*
D11*
X323056250Y-81280000D03*
D10*
X329882500Y-73025000D03*
D11*
X334962500Y-73025000D03*
D10*
X340042500Y-73025000D03*
D13*
X346868750Y-66040000D03*
D11*
X346868750Y-81280000D03*
D12*
X331152500Y-70485000D03*
X337502500Y-67945000D03*
%TD*%
D10*
%TO.C,SW9*%
X206057500Y-73025000D03*
D11*
X211137500Y-73025000D03*
D10*
X216217500Y-73025000D03*
D12*
X207327500Y-70485000D03*
X213677500Y-67945000D03*
%TD*%
D10*
%TO.C,SW20*%
X139382500Y-92075000D03*
D11*
X144462500Y-92075000D03*
D10*
X149542500Y-92075000D03*
D12*
X140652500Y-89535000D03*
X147002500Y-86995000D03*
%TD*%
D10*
%TO.C,SW48*%
X134620000Y-130175000D03*
D11*
X139700000Y-130175000D03*
D10*
X144780000Y-130175000D03*
D12*
X135890000Y-127635000D03*
X142240000Y-125095000D03*
%TD*%
D10*
%TO.C,SW58*%
X339407500Y-130175000D03*
D11*
X344487500Y-130175000D03*
D10*
X349567500Y-130175000D03*
D12*
X340677500Y-127635000D03*
X347027500Y-125095000D03*
%TD*%
D10*
%TO.C,SW60*%
X75088750Y-149225000D03*
D11*
X80168750Y-149225000D03*
D10*
X85248750Y-149225000D03*
D12*
X76358750Y-146685000D03*
X82708750Y-144145000D03*
%TD*%
D10*
%TO.C,SW38*%
X201295000Y-111125000D03*
D11*
X206375000Y-111125000D03*
D10*
X211455000Y-111125000D03*
D12*
X202565000Y-108585000D03*
X208915000Y-106045000D03*
%TD*%
D10*
%TO.C,SW54*%
X248920000Y-130175000D03*
D11*
X254000000Y-130175000D03*
D10*
X259080000Y-130175000D03*
D12*
X250190000Y-127635000D03*
X256540000Y-125095000D03*
%TD*%
D10*
%TO.C,SW65*%
X282257500Y-149225000D03*
D11*
X287337500Y-149225000D03*
D10*
X292417500Y-149225000D03*
D12*
X283527500Y-146685000D03*
X289877500Y-144145000D03*
%TD*%
D10*
%TO.C,SW11*%
X244157500Y-73025000D03*
D11*
X249237500Y-73025000D03*
D10*
X254317500Y-73025000D03*
D12*
X245427500Y-70485000D03*
X251777500Y-67945000D03*
%TD*%
D10*
%TO.C,SW7*%
X167957500Y-73025000D03*
D11*
X173037500Y-73025000D03*
D10*
X178117500Y-73025000D03*
D12*
X169227500Y-70485000D03*
X175577500Y-67945000D03*
%TD*%
D10*
%TO.C,SW12*%
X263207500Y-73025000D03*
D11*
X268287500Y-73025000D03*
D10*
X273367500Y-73025000D03*
D12*
X264477500Y-70485000D03*
X270827500Y-67945000D03*
%TD*%
D10*
%TO.C,SW37*%
X182245000Y-111125000D03*
D11*
X187325000Y-111125000D03*
D10*
X192405000Y-111125000D03*
D12*
X183515000Y-108585000D03*
X189865000Y-106045000D03*
%TD*%
D10*
%TO.C,SW13*%
X282257500Y-73025000D03*
D11*
X287337500Y-73025000D03*
D10*
X292417500Y-73025000D03*
D12*
X283527500Y-70485000D03*
X289877500Y-67945000D03*
%TD*%
D10*
%TO.C,SW51*%
X191770000Y-130175000D03*
D11*
X196850000Y-130175000D03*
D10*
X201930000Y-130175000D03*
D12*
X193040000Y-127635000D03*
X199390000Y-125095000D03*
%TD*%
D10*
%TO.C,SW47*%
X115570000Y-130175000D03*
D11*
X120650000Y-130175000D03*
D10*
X125730000Y-130175000D03*
D12*
X116840000Y-127635000D03*
X123190000Y-125095000D03*
%TD*%
D10*
%TO.C,SW29*%
X310832500Y-92075000D03*
D11*
X315912500Y-92075000D03*
D10*
X320992500Y-92075000D03*
D12*
X312102500Y-89535000D03*
X318452500Y-86995000D03*
%TD*%
D10*
%TO.C,SW21*%
X158432500Y-92075000D03*
D11*
X163512500Y-92075000D03*
D10*
X168592500Y-92075000D03*
D12*
X159702500Y-89535000D03*
X166052500Y-86995000D03*
%TD*%
D10*
%TO.C,SW30*%
X334645000Y-92075000D03*
D11*
X339725000Y-92075000D03*
D10*
X344805000Y-92075000D03*
D12*
X335915000Y-89535000D03*
X342265000Y-86995000D03*
%TD*%
D10*
%TO.C,SW33*%
X106045000Y-111125000D03*
D11*
X111125000Y-111125000D03*
D10*
X116205000Y-111125000D03*
D12*
X107315000Y-108585000D03*
X113665000Y-106045000D03*
%TD*%
D10*
%TO.C,SW35*%
X144145000Y-111125000D03*
D11*
X149225000Y-111125000D03*
D10*
X154305000Y-111125000D03*
D12*
X145415000Y-108585000D03*
X151765000Y-106045000D03*
%TD*%
D13*
%TO.C,SW44*%
X320675000Y-104140000D03*
D11*
X320675000Y-119380000D03*
D10*
X327501250Y-111125000D03*
D11*
X332581250Y-111125000D03*
D10*
X337661250Y-111125000D03*
D13*
X344487500Y-104140000D03*
D11*
X344487500Y-119380000D03*
D12*
X328771250Y-108585000D03*
X335121250Y-106045000D03*
%TD*%
D10*
%TO.C,SW45*%
X358457500Y-111125000D03*
D11*
X363537500Y-111125000D03*
D10*
X368617500Y-111125000D03*
D12*
X359727500Y-108585000D03*
X366077500Y-106045000D03*
%TD*%
D10*
%TO.C,SW14*%
X301307500Y-73025000D03*
D11*
X306387500Y-73025000D03*
D10*
X311467500Y-73025000D03*
D12*
X302577500Y-70485000D03*
X308927500Y-67945000D03*
%TD*%
D10*
%TO.C,SW23*%
X196532500Y-92075000D03*
D11*
X201612500Y-92075000D03*
D10*
X206692500Y-92075000D03*
D12*
X197802500Y-89535000D03*
X204152500Y-86995000D03*
%TD*%
D10*
%TO.C,SW32*%
X79851250Y-111125000D03*
D11*
X84931250Y-111125000D03*
D10*
X90011250Y-111125000D03*
D12*
X81121250Y-108585000D03*
X87471250Y-106045000D03*
%TD*%
D10*
%TO.C,SW49*%
X153670000Y-130175000D03*
D11*
X158750000Y-130175000D03*
D10*
X163830000Y-130175000D03*
D12*
X154940000Y-127635000D03*
X161290000Y-125095000D03*
%TD*%
D10*
%TO.C,SW1*%
X72707500Y-73025000D03*
D11*
X77787500Y-73025000D03*
D10*
X82867500Y-73025000D03*
D12*
X73977500Y-70485000D03*
X80327500Y-67945000D03*
%TD*%
D10*
%TO.C,SW4*%
X110807500Y-73025000D03*
D11*
X115887500Y-73025000D03*
D10*
X120967500Y-73025000D03*
D12*
X112077500Y-70485000D03*
X118427500Y-67945000D03*
%TD*%
D13*
%TO.C,SW63*%
X149231350Y-142240000D03*
D11*
X149231350Y-157480000D03*
D10*
X194151250Y-149225000D03*
D11*
X199231250Y-149225000D03*
D10*
X204311250Y-149225000D03*
D13*
X249231150Y-142240000D03*
D11*
X249231150Y-157480000D03*
D12*
X195421250Y-146685000D03*
X201771250Y-144145000D03*
%TD*%
D10*
%TO.C,SW64*%
X263207500Y-149225000D03*
D11*
X268287500Y-149225000D03*
D10*
X273367500Y-149225000D03*
D12*
X264477500Y-146685000D03*
X270827500Y-144145000D03*
%TD*%
D10*
%TO.C,SW43*%
X296545000Y-111125000D03*
D11*
X301625000Y-111125000D03*
D10*
X306705000Y-111125000D03*
D12*
X297815000Y-108585000D03*
X304165000Y-106045000D03*
%TD*%
D10*
%TO.C,SW25*%
X234632500Y-92075000D03*
D11*
X239712500Y-92075000D03*
D10*
X244792500Y-92075000D03*
D12*
X235902500Y-89535000D03*
X242252500Y-86995000D03*
%TD*%
D10*
%TO.C,SW55*%
X267970000Y-130175000D03*
D11*
X273050000Y-130175000D03*
D10*
X278130000Y-130175000D03*
D12*
X269240000Y-127635000D03*
X275590000Y-125095000D03*
%TD*%
D10*
%TO.C,SW50*%
X172720000Y-130175000D03*
D11*
X177800000Y-130175000D03*
D10*
X182880000Y-130175000D03*
D12*
X173990000Y-127635000D03*
X180340000Y-125095000D03*
%TD*%
D10*
%TO.C,SW28*%
X291782500Y-92075000D03*
D11*
X296862500Y-92075000D03*
D10*
X301942500Y-92075000D03*
D12*
X293052500Y-89535000D03*
X299402500Y-86995000D03*
%TD*%
D10*
%TO.C,SW57*%
X313213750Y-130175000D03*
D11*
X318293750Y-130175000D03*
D10*
X323373750Y-130175000D03*
D12*
X314483750Y-127635000D03*
X320833750Y-125095000D03*
%TD*%
D10*
%TO.C,SW69*%
X358457500Y-149225000D03*
D11*
X363537500Y-149225000D03*
D10*
X368617500Y-149225000D03*
D12*
X359727500Y-146685000D03*
X366077500Y-144145000D03*
%TD*%
D10*
%TO.C,SW5*%
X129857500Y-73025000D03*
D11*
X134937500Y-73025000D03*
D10*
X140017500Y-73025000D03*
D12*
X131127500Y-70485000D03*
X137477500Y-67945000D03*
%TD*%
D10*
%TO.C,SW39*%
X220345000Y-111125000D03*
D11*
X225425000Y-111125000D03*
D10*
X230505000Y-111125000D03*
D12*
X221615000Y-108585000D03*
X227965000Y-106045000D03*
%TD*%
D13*
%TO.C,SW46*%
X77787500Y-123190000D03*
D11*
X77787500Y-138430000D03*
D10*
X84613750Y-130175000D03*
D11*
X89693750Y-130175000D03*
D10*
X94773750Y-130175000D03*
D13*
X101600000Y-123190000D03*
D11*
X101600000Y-138430000D03*
D12*
X85883750Y-127635000D03*
X92233750Y-125095000D03*
%TD*%
D10*
%TO.C,SW62*%
X122713750Y-149225000D03*
D11*
X127793750Y-149225000D03*
D10*
X132873750Y-149225000D03*
D12*
X123983750Y-146685000D03*
X130333750Y-144145000D03*
%TD*%
D10*
%TO.C,SW19*%
X120332500Y-92075000D03*
D11*
X125412500Y-92075000D03*
D10*
X130492500Y-92075000D03*
D12*
X121602500Y-89535000D03*
X127952500Y-86995000D03*
%TD*%
D10*
%TO.C,SW10*%
X225107500Y-73025000D03*
D11*
X230187500Y-73025000D03*
D10*
X235267500Y-73025000D03*
D12*
X226377500Y-70485000D03*
X232727500Y-67945000D03*
%TD*%
D10*
%TO.C,SW36*%
X163195000Y-111125000D03*
D11*
X168275000Y-111125000D03*
D10*
X173355000Y-111125000D03*
D12*
X164465000Y-108585000D03*
X170815000Y-106045000D03*
%TD*%
D10*
%TO.C,SW17*%
X77470000Y-92075000D03*
D11*
X82550000Y-92075000D03*
D10*
X87630000Y-92075000D03*
D12*
X78740000Y-89535000D03*
X85090000Y-86995000D03*
%TD*%
D14*
%TO.C,D52*%
X209867500Y-136525000D03*
X209867500Y-133225000D03*
%TD*%
%TO.C,D10*%
X236061250Y-79375000D03*
X236061250Y-76075000D03*
%TD*%
%TO.C,D41*%
X257492500Y-117475000D03*
X257492500Y-114175000D03*
%TD*%
%TO.C,D62*%
X121761250Y-155700000D03*
X121761250Y-152400000D03*
%TD*%
%TO.C,D67*%
X319405000Y-155575000D03*
X319405000Y-152275000D03*
%TD*%
%TO.C,D36*%
X162242500Y-117475000D03*
X162242500Y-114175000D03*
%TD*%
%TO.C,D49*%
X152717500Y-136525000D03*
X152717500Y-133225000D03*
%TD*%
%TO.C,D56*%
X286067500Y-136525000D03*
X286067500Y-133225000D03*
%TD*%
D15*
%TO.C,R5*%
X242554000Y-142494000D03*
X240554000Y-142494000D03*
%TD*%
D14*
%TO.C,D47*%
X114617500Y-136525000D03*
X114617500Y-133225000D03*
%TD*%
D16*
%TO.C,C6*%
X236263000Y-150241000D03*
X234188000Y-150241000D03*
%TD*%
D14*
%TO.C,D28*%
X290830000Y-98425000D03*
X290830000Y-95125000D03*
%TD*%
%TO.C,D35*%
X143192500Y-117475000D03*
X143192500Y-114175000D03*
%TD*%
D17*
%TO.C,C2*%
X229532000Y-143183700D03*
X229532000Y-145258700D03*
%TD*%
D14*
%TO.C,D6*%
X147955000Y-79375000D03*
X147955000Y-76075000D03*
%TD*%
%TO.C,D57*%
X312261250Y-136525000D03*
X312261250Y-133225000D03*
%TD*%
%TO.C,D22*%
X176530000Y-98425000D03*
X176530000Y-95125000D03*
%TD*%
%TO.C,D44*%
X326548750Y-117475000D03*
X326548750Y-114175000D03*
%TD*%
%TO.C,D43*%
X295592500Y-117475000D03*
X295592500Y-114175000D03*
%TD*%
%TO.C,D3*%
X90805000Y-79375000D03*
X90805000Y-76075000D03*
%TD*%
%TO.C,D16*%
X357505000Y-79375000D03*
X357505000Y-76075000D03*
%TD*%
%TO.C,D29*%
X309880000Y-98425000D03*
X309880000Y-95125000D03*
%TD*%
%TO.C,D33*%
X105092500Y-117475000D03*
X105092500Y-114175000D03*
%TD*%
%TO.C,D45*%
X357505000Y-117475000D03*
X357505000Y-114175000D03*
%TD*%
%TO.C,D31*%
X357505000Y-98425000D03*
X357505000Y-95125000D03*
%TD*%
%TO.C,D68*%
X338455000Y-155575000D03*
X338455000Y-152275000D03*
%TD*%
%TO.C,D30*%
X333692500Y-98425000D03*
X333692500Y-95125000D03*
%TD*%
%TO.C,D46*%
X83661250Y-136525000D03*
X83661250Y-133225000D03*
%TD*%
%TO.C,D5*%
X128905000Y-79375000D03*
X128905000Y-76075000D03*
%TD*%
%TO.C,D38*%
X200342500Y-117475000D03*
X200342500Y-114175000D03*
%TD*%
%TO.C,D34*%
X124142500Y-117475000D03*
X124142500Y-114175000D03*
%TD*%
D18*
%TO.C,D1*%
X221624400Y-79564800D03*
D19*
X221624400Y-81264800D03*
X219624400Y-81264800D03*
X219624400Y-79364800D03*
%TD*%
D16*
%TO.C,C7*%
X236237600Y-147904200D03*
X234162600Y-147904200D03*
%TD*%
D14*
%TO.C,D42*%
X276542500Y-117475000D03*
X276542500Y-114175000D03*
%TD*%
%TO.C,D69*%
X357505000Y-155637500D03*
X357505000Y-152337500D03*
%TD*%
D20*
%TO.C,SW2*%
X240521000Y-145998000D03*
X240521000Y-152198000D03*
X244221000Y-145998000D03*
X244221000Y-152198000D03*
%TD*%
D14*
%TO.C,D55*%
X267017500Y-136525000D03*
X267017500Y-133225000D03*
%TD*%
%TO.C,D24*%
X214630000Y-98425000D03*
X214630000Y-95125000D03*
%TD*%
%TO.C,D23*%
X195580000Y-98425000D03*
X195580000Y-95125000D03*
%TD*%
%TO.C,D63*%
X193198750Y-155575000D03*
X193198750Y-152275000D03*
%TD*%
D21*
%TO.C,J1*%
X182747225Y-152364145D03*
X185287225Y-152364145D03*
X182747225Y-149824145D03*
X185287225Y-149824145D03*
X182747225Y-147284145D03*
D22*
X185287225Y-147284145D03*
%TD*%
D14*
%TO.C,D64*%
X262255000Y-155575000D03*
X262255000Y-152275000D03*
%TD*%
%TO.C,D40*%
X238442500Y-117475000D03*
X238442500Y-114175000D03*
%TD*%
%TO.C,D13*%
X281305000Y-79375000D03*
X281305000Y-76075000D03*
%TD*%
%TO.C,D58*%
X338455000Y-136525000D03*
X338455000Y-133225000D03*
%TD*%
%TO.C,D60*%
X74136250Y-155575000D03*
X74136250Y-152275000D03*
%TD*%
D23*
%TO.C,F1*%
X216217500Y-83937500D03*
X216217500Y-80962500D03*
%TD*%
D14*
%TO.C,D61*%
X97948750Y-155575000D03*
X97948750Y-152275000D03*
%TD*%
%TO.C,D18*%
X100330000Y-98425000D03*
X100330000Y-95125000D03*
%TD*%
D16*
%TO.C,C5*%
X213592500Y-140712500D03*
X211517500Y-140712500D03*
%TD*%
D24*
%TO.C,C4*%
X224514500Y-156718000D03*
X226589500Y-156718000D03*
%TD*%
D14*
%TO.C,D39*%
X219392500Y-117475000D03*
X219392500Y-114175000D03*
%TD*%
%TO.C,D11*%
X243205000Y-79375000D03*
X243205000Y-76075000D03*
%TD*%
D25*
%TO.C,C3*%
X209092500Y-154287500D03*
X209092500Y-152212500D03*
%TD*%
D14*
%TO.C,D54*%
X247967500Y-136525000D03*
X247967500Y-133225000D03*
%TD*%
%TO.C,D14*%
X300355000Y-79375000D03*
X300355000Y-76075000D03*
%TD*%
D26*
%TO.C,R9*%
X217392500Y-76993750D03*
X219392500Y-76993750D03*
%TD*%
D14*
%TO.C,D51*%
X190817500Y-136525000D03*
X190817500Y-133225000D03*
%TD*%
%TO.C,D48*%
X133667500Y-136525000D03*
X133667500Y-133225000D03*
%TD*%
%TO.C,D66*%
X300355000Y-155575000D03*
X300355000Y-152275000D03*
%TD*%
%TO.C,D19*%
X119380000Y-98425000D03*
X119380000Y-95125000D03*
%TD*%
%TO.C,D20*%
X138430000Y-98425000D03*
X138430000Y-95125000D03*
%TD*%
%TO.C,D65*%
X281305000Y-155575000D03*
X281305000Y-152275000D03*
%TD*%
%TO.C,D32*%
X78898750Y-117475000D03*
X78898750Y-114175000D03*
%TD*%
%TO.C,D7*%
X167005000Y-79375000D03*
X167005000Y-76075000D03*
%TD*%
%TO.C,D15*%
X328930000Y-79375000D03*
X328930000Y-76075000D03*
%TD*%
D27*
%TO.C,U1*%
X215586250Y-143312500D03*
X216386250Y-143312500D03*
X217186250Y-143312500D03*
X217986250Y-143312500D03*
X218786250Y-143312500D03*
X219586250Y-143312500D03*
X220386250Y-143312500D03*
X221186250Y-143312500D03*
X221986250Y-143312500D03*
X222786250Y-143312500D03*
X223586250Y-143312500D03*
D28*
X225286250Y-145012500D03*
X225286250Y-145812500D03*
X225286250Y-146612500D03*
X225286250Y-147412500D03*
X225286250Y-148212500D03*
X225286250Y-149012500D03*
X225286250Y-149812500D03*
X225286250Y-150612500D03*
X225286250Y-151412500D03*
X225286250Y-152212500D03*
X225286250Y-153012500D03*
D27*
X223586250Y-154712500D03*
X222786250Y-154712500D03*
X221986250Y-154712500D03*
X221186250Y-154712500D03*
X220386250Y-154712500D03*
X219586250Y-154712500D03*
X218786250Y-154712500D03*
X217986250Y-154712500D03*
X217186250Y-154712500D03*
X216386250Y-154712500D03*
X215586250Y-154712500D03*
D28*
X213886250Y-153012500D03*
X213886250Y-152212500D03*
X213886250Y-151412500D03*
X213886250Y-150612500D03*
X213886250Y-149812500D03*
X213886250Y-149012500D03*
X213886250Y-148212500D03*
X213886250Y-147412500D03*
X213886250Y-146612500D03*
X213886250Y-145812500D03*
X213886250Y-145012500D03*
%TD*%
D14*
%TO.C,D12*%
X262255000Y-79375000D03*
X262255000Y-76075000D03*
%TD*%
%TO.C,D8*%
X186055000Y-79375000D03*
X186055000Y-76075000D03*
%TD*%
D29*
%TO.C,R6*%
X215087200Y-135126400D03*
X215087200Y-137126400D03*
%TD*%
D14*
%TO.C,D17*%
X76517500Y-98425000D03*
X76517500Y-95125000D03*
%TD*%
%TO.C,D27*%
X271780000Y-98425000D03*
X271780000Y-95125000D03*
%TD*%
%TO.C,D37*%
X181292500Y-117475000D03*
X181292500Y-114175000D03*
%TD*%
%TO.C,D26*%
X252730000Y-98425000D03*
X252730000Y-95125000D03*
%TD*%
%TO.C,D59*%
X357505000Y-136525000D03*
X357505000Y-133225000D03*
%TD*%
D15*
%TO.C,R1*%
X213709000Y-157099000D03*
X211709000Y-157099000D03*
%TD*%
D14*
%TO.C,D2*%
X71755000Y-79375000D03*
X71755000Y-76075000D03*
%TD*%
D15*
%TO.C,R8*%
X224948750Y-76993750D03*
X222948750Y-76993750D03*
%TD*%
D14*
%TO.C,D9*%
X205105000Y-79375000D03*
X205105000Y-76075000D03*
%TD*%
%TO.C,D21*%
X157480000Y-98425000D03*
X157480000Y-95125000D03*
%TD*%
%TO.C,D53*%
X228917500Y-136525000D03*
X228917500Y-133225000D03*
%TD*%
D16*
%TO.C,C1*%
X221382500Y-139573000D03*
X219307500Y-139573000D03*
%TD*%
D30*
%TO.C,USB1*%
X217738750Y-64730000D03*
X223518750Y-64730000D03*
D31*
X217403750Y-66675000D03*
X218178750Y-66675000D03*
D32*
X218878750Y-66675000D03*
X219378750Y-66675000D03*
X219878750Y-66675000D03*
X220378750Y-66675000D03*
X220878750Y-66675000D03*
X221378750Y-66675000D03*
X221878750Y-66675000D03*
X222378750Y-66675000D03*
D31*
X223078750Y-66675000D03*
X223853750Y-66675000D03*
%TD*%
D14*
%TO.C,D25*%
X233680000Y-98425000D03*
X233680000Y-95125000D03*
%TD*%
%TO.C,D50*%
X171767500Y-136525000D03*
X171767500Y-133225000D03*
%TD*%
D29*
%TO.C,R7*%
X217322400Y-135126400D03*
X217322400Y-137126400D03*
%TD*%
D33*
%TO.C,Y1*%
X229659000Y-150550200D03*
X229659000Y-147650200D03*
X231959000Y-147650200D03*
X231959000Y-150550200D03*
%TD*%
D14*
%TO.C,D4*%
X109855000Y-79375000D03*
X109855000Y-76075000D03*
%TD*%
M02*
