%TF.GenerationSoftware,KiCad,Pcbnew,9.0.1*%
%TF.CreationDate,2025-04-20T00:02:55-06:00*%
%TF.ProjectId,PCBv1,50434276-312e-46b6-9963-61645f706362,rev?*%
%TF.SameCoordinates,Original*%
%TF.FileFunction,Copper,L1,Top*%
%TF.FilePolarity,Positive*%
%FSLAX46Y46*%
G04 Gerber Fmt 4.6, Leading zero omitted, Abs format (unit mm)*
G04 Created by KiCad (PCBNEW 9.0.1) date 2025-04-20 00:02:55*
%MOMM*%
%LPD*%
G01*
G04 APERTURE LIST*
%TA.AperFunction,ComponentPad*%
%ADD10C,2.250000*%
%TD*%
%TA.AperFunction,ComponentPad*%
%ADD11C,1.700000*%
%TD*%
%TA.AperFunction,ComponentPad*%
%ADD12R,1.700000X1.700000*%
%TD*%
%TA.AperFunction,ComponentPad*%
%ADD13O,1.000000X1.600000*%
%TD*%
%TA.AperFunction,ComponentPad*%
%ADD14O,1.000000X2.100000*%
%TD*%
%TA.AperFunction,ViaPad*%
%ADD15C,0.600000*%
%TD*%
%TA.AperFunction,Conductor*%
%ADD16C,0.381000*%
%TD*%
%TA.AperFunction,Conductor*%
%ADD17C,0.200000*%
%TD*%
G04 APERTURE END LIST*
D10*
%TO.P,SW61,1,1*%
%TO.N,Net-(D61-A)*%
X100171250Y-146685000D03*
%TO.P,SW61,2,2*%
%TO.N,col1*%
X106521250Y-144145000D03*
%TD*%
%TO.P,SW24,1,1*%
%TO.N,Net-(D24-A)*%
X216852500Y-89535000D03*
%TO.P,SW24,2,2*%
%TO.N,col7*%
X223202500Y-86995000D03*
%TD*%
%TO.P,SW26,1,1*%
%TO.N,Net-(D26-A)*%
X254952500Y-89535000D03*
%TO.P,SW26,2,2*%
%TO.N,col9*%
X261302500Y-86995000D03*
%TD*%
%TO.P,SW27,1,1*%
%TO.N,Net-(D27-A)*%
X274002500Y-89535000D03*
%TO.P,SW27,2,2*%
%TO.N,col10*%
X280352500Y-86995000D03*
%TD*%
%TO.P,SW41,1,1*%
%TO.N,Net-(D41-A)*%
X259715000Y-108585000D03*
%TO.P,SW41,2,2*%
%TO.N,col9*%
X266065000Y-106045000D03*
%TD*%
%TO.P,SW67,1,1*%
%TO.N,Net-(D67-A)*%
X321627500Y-146685000D03*
%TO.P,SW67,2,2*%
%TO.N,col12*%
X327977500Y-144145000D03*
%TD*%
%TO.P,SW56,1,1*%
%TO.N,Net-(D56-A)*%
X288290000Y-127635000D03*
%TO.P,SW56,2,2*%
%TO.N,col10*%
X294640000Y-125095000D03*
%TD*%
%TO.P,SW52,1,1*%
%TO.N,Net-(D52-A)*%
X212090000Y-127635000D03*
%TO.P,SW52,2,2*%
%TO.N,col6*%
X218440000Y-125095000D03*
%TD*%
%TO.P,SW42,1,1*%
%TO.N,Net-(D42-A)*%
X278765000Y-108585000D03*
%TO.P,SW42,2,2*%
%TO.N,col10*%
X285115000Y-106045000D03*
%TD*%
%TO.P,SW3,1,1*%
%TO.N,Net-(D3-A)*%
X93027500Y-70485000D03*
%TO.P,SW3,2,2*%
%TO.N,col1*%
X99377500Y-67945000D03*
%TD*%
%TO.P,SW68,1,1*%
%TO.N,Net-(D68-A)*%
X340677500Y-146685000D03*
%TO.P,SW68,2,2*%
%TO.N,col13*%
X347027500Y-144145000D03*
%TD*%
%TO.P,SW59,1,1*%
%TO.N,Net-(D59-A)*%
X359727500Y-127635000D03*
%TO.P,SW59,2,2*%
%TO.N,col14*%
X366077500Y-125095000D03*
%TD*%
%TO.P,SW31,1,1*%
%TO.N,Net-(D31-A)*%
X359727500Y-89535000D03*
%TO.P,SW31,2,2*%
%TO.N,col14*%
X366077500Y-86995000D03*
%TD*%
%TO.P,SW34,1,1*%
%TO.N,Net-(D34-A)*%
X126365000Y-108585000D03*
%TO.P,SW34,2,2*%
%TO.N,col2*%
X132715000Y-106045000D03*
%TD*%
%TO.P,SW16,1,1*%
%TO.N,Net-(D16-A)*%
X359727500Y-70485000D03*
%TO.P,SW16,2,2*%
%TO.N,col14*%
X366077500Y-67945000D03*
%TD*%
%TO.P,SW66,1,1*%
%TO.N,Net-(D66-A)*%
X302577500Y-146685000D03*
%TO.P,SW66,2,2*%
%TO.N,col11*%
X308927500Y-144145000D03*
%TD*%
%TO.P,SW6,1,1*%
%TO.N,Net-(D6-A)*%
X150177500Y-70485000D03*
%TO.P,SW6,2,2*%
%TO.N,col4*%
X156527500Y-67945000D03*
%TD*%
%TO.P,SW18,1,1*%
%TO.N,Net-(D18-A)*%
X102552500Y-89535000D03*
%TO.P,SW18,2,2*%
%TO.N,col1*%
X108902500Y-86995000D03*
%TD*%
%TO.P,SW8,1,1*%
%TO.N,Net-(D8-A)*%
X188277500Y-70485000D03*
%TO.P,SW8,2,2*%
%TO.N,col6*%
X194627500Y-67945000D03*
%TD*%
%TO.P,SW22,1,1*%
%TO.N,Net-(D22-A)*%
X178752500Y-89535000D03*
%TO.P,SW22,2,2*%
%TO.N,col5*%
X185102500Y-86995000D03*
%TD*%
%TO.P,SW40,1,1*%
%TO.N,Net-(D40-A)*%
X240665000Y-108585000D03*
%TO.P,SW40,2,2*%
%TO.N,col8*%
X247015000Y-106045000D03*
%TD*%
%TO.P,SW53,1,1*%
%TO.N,Net-(D53-A)*%
X231140000Y-127635000D03*
%TO.P,SW53,2,2*%
%TO.N,col7*%
X237490000Y-125095000D03*
%TD*%
%TO.P,SW15,1,1*%
%TO.N,Net-(D15-A)*%
X331152500Y-70485000D03*
%TO.P,SW15,2,2*%
%TO.N,col13*%
X337502500Y-67945000D03*
%TD*%
%TO.P,SW9,1,1*%
%TO.N,Net-(D9-A)*%
X207327500Y-70485000D03*
%TO.P,SW9,2,2*%
%TO.N,col7*%
X213677500Y-67945000D03*
%TD*%
%TO.P,SW20,1,1*%
%TO.N,Net-(D20-A)*%
X140652500Y-89535000D03*
%TO.P,SW20,2,2*%
%TO.N,col3*%
X147002500Y-86995000D03*
%TD*%
%TO.P,SW48,1,1*%
%TO.N,Net-(D48-A)*%
X135890000Y-127635000D03*
%TO.P,SW48,2,2*%
%TO.N,col2*%
X142240000Y-125095000D03*
%TD*%
%TO.P,SW58,1,1*%
%TO.N,Net-(D58-A)*%
X340677500Y-127635000D03*
%TO.P,SW58,2,2*%
%TO.N,col13*%
X347027500Y-125095000D03*
%TD*%
%TO.P,SW60,1,1*%
%TO.N,Net-(D60-A)*%
X76358750Y-146685000D03*
%TO.P,SW60,2,2*%
%TO.N,col0*%
X82708750Y-144145000D03*
%TD*%
%TO.P,SW38,1,1*%
%TO.N,Net-(D38-A)*%
X202565000Y-108585000D03*
%TO.P,SW38,2,2*%
%TO.N,col6*%
X208915000Y-106045000D03*
%TD*%
%TO.P,SW54,1,1*%
%TO.N,Net-(D54-A)*%
X250190000Y-127635000D03*
%TO.P,SW54,2,2*%
%TO.N,col8*%
X256540000Y-125095000D03*
%TD*%
%TO.P,SW65,1,1*%
%TO.N,Net-(D65-A)*%
X283527500Y-146685000D03*
%TO.P,SW65,2,2*%
%TO.N,col10*%
X289877500Y-144145000D03*
%TD*%
%TO.P,SW11,1,1*%
%TO.N,Net-(D11-A)*%
X245427500Y-70485000D03*
%TO.P,SW11,2,2*%
%TO.N,col9*%
X251777500Y-67945000D03*
%TD*%
%TO.P,SW7,1,1*%
%TO.N,Net-(D7-A)*%
X169227500Y-70485000D03*
%TO.P,SW7,2,2*%
%TO.N,col5*%
X175577500Y-67945000D03*
%TD*%
%TO.P,SW12,1,1*%
%TO.N,Net-(D12-A)*%
X264477500Y-70485000D03*
%TO.P,SW12,2,2*%
%TO.N,col10*%
X270827500Y-67945000D03*
%TD*%
%TO.P,SW37,1,1*%
%TO.N,Net-(D37-A)*%
X183515000Y-108585000D03*
%TO.P,SW37,2,2*%
%TO.N,col5*%
X189865000Y-106045000D03*
%TD*%
%TO.P,SW13,1,1*%
%TO.N,Net-(D13-A)*%
X283527500Y-70485000D03*
%TO.P,SW13,2,2*%
%TO.N,col11*%
X289877500Y-67945000D03*
%TD*%
%TO.P,SW51,1,1*%
%TO.N,Net-(D51-A)*%
X193040000Y-127635000D03*
%TO.P,SW51,2,2*%
%TO.N,col5*%
X199390000Y-125095000D03*
%TD*%
%TO.P,SW47,1,1*%
%TO.N,Net-(D47-A)*%
X116840000Y-127635000D03*
%TO.P,SW47,2,2*%
%TO.N,col1*%
X123190000Y-125095000D03*
%TD*%
%TO.P,SW29,1,1*%
%TO.N,Net-(D29-A)*%
X312102500Y-89535000D03*
%TO.P,SW29,2,2*%
%TO.N,col12*%
X318452500Y-86995000D03*
%TD*%
%TO.P,SW21,1,1*%
%TO.N,Net-(D21-A)*%
X159702500Y-89535000D03*
%TO.P,SW21,2,2*%
%TO.N,col4*%
X166052500Y-86995000D03*
%TD*%
%TO.P,SW30,1,1*%
%TO.N,Net-(D30-A)*%
X335915000Y-89535000D03*
%TO.P,SW30,2,2*%
%TO.N,col13*%
X342265000Y-86995000D03*
%TD*%
%TO.P,SW33,1,1*%
%TO.N,Net-(D33-A)*%
X107315000Y-108585000D03*
%TO.P,SW33,2,2*%
%TO.N,col1*%
X113665000Y-106045000D03*
%TD*%
%TO.P,SW35,1,1*%
%TO.N,Net-(D35-A)*%
X145415000Y-108585000D03*
%TO.P,SW35,2,2*%
%TO.N,col3*%
X151765000Y-106045000D03*
%TD*%
%TO.P,SW44,1,1*%
%TO.N,Net-(D44-A)*%
X328771250Y-108585000D03*
%TO.P,SW44,2,2*%
%TO.N,col13*%
X335121250Y-106045000D03*
%TD*%
%TO.P,SW45,1,1*%
%TO.N,Net-(D45-A)*%
X359727500Y-108585000D03*
%TO.P,SW45,2,2*%
%TO.N,col14*%
X366077500Y-106045000D03*
%TD*%
%TO.P,SW14,1,1*%
%TO.N,Net-(D14-A)*%
X302577500Y-70485000D03*
%TO.P,SW14,2,2*%
%TO.N,col12*%
X308927500Y-67945000D03*
%TD*%
%TO.P,SW23,1,1*%
%TO.N,Net-(D23-A)*%
X197802500Y-89535000D03*
%TO.P,SW23,2,2*%
%TO.N,col6*%
X204152500Y-86995000D03*
%TD*%
%TO.P,SW32,1,1*%
%TO.N,Net-(D32-A)*%
X81121250Y-108585000D03*
%TO.P,SW32,2,2*%
%TO.N,col0*%
X87471250Y-106045000D03*
%TD*%
%TO.P,SW49,1,1*%
%TO.N,Net-(D49-A)*%
X154940000Y-127635000D03*
%TO.P,SW49,2,2*%
%TO.N,col3*%
X161290000Y-125095000D03*
%TD*%
%TO.P,SW1,1,1*%
%TO.N,Net-(D2-A)*%
X73977500Y-70485000D03*
%TO.P,SW1,2,2*%
%TO.N,col0*%
X80327500Y-67945000D03*
%TD*%
%TO.P,SW4,1,1*%
%TO.N,Net-(D4-A)*%
X112077500Y-70485000D03*
%TO.P,SW4,2,2*%
%TO.N,col2*%
X118427500Y-67945000D03*
%TD*%
%TO.P,SW63,1,1*%
%TO.N,Net-(D63-A)*%
X195421250Y-146685000D03*
%TO.P,SW63,2,2*%
%TO.N,col6*%
X201771250Y-144145000D03*
%TD*%
%TO.P,SW64,1,1*%
%TO.N,Net-(D64-A)*%
X264477500Y-146685000D03*
%TO.P,SW64,2,2*%
%TO.N,col9*%
X270827500Y-144145000D03*
%TD*%
%TO.P,SW43,1,1*%
%TO.N,Net-(D43-A)*%
X297815000Y-108585000D03*
%TO.P,SW43,2,2*%
%TO.N,col11*%
X304165000Y-106045000D03*
%TD*%
%TO.P,SW25,1,1*%
%TO.N,Net-(D25-A)*%
X235902500Y-89535000D03*
%TO.P,SW25,2,2*%
%TO.N,col8*%
X242252500Y-86995000D03*
%TD*%
%TO.P,SW55,1,1*%
%TO.N,Net-(D55-A)*%
X269240000Y-127635000D03*
%TO.P,SW55,2,2*%
%TO.N,col9*%
X275590000Y-125095000D03*
%TD*%
%TO.P,SW50,1,1*%
%TO.N,Net-(D50-A)*%
X173990000Y-127635000D03*
%TO.P,SW50,2,2*%
%TO.N,col4*%
X180340000Y-125095000D03*
%TD*%
%TO.P,SW28,1,1*%
%TO.N,Net-(D28-A)*%
X293052500Y-89535000D03*
%TO.P,SW28,2,2*%
%TO.N,col11*%
X299402500Y-86995000D03*
%TD*%
%TO.P,SW57,1,1*%
%TO.N,Net-(D57-A)*%
X314483750Y-127635000D03*
%TO.P,SW57,2,2*%
%TO.N,col12*%
X320833750Y-125095000D03*
%TD*%
%TO.P,SW69,1,1*%
%TO.N,Net-(D69-A)*%
X359727500Y-146685000D03*
%TO.P,SW69,2,2*%
%TO.N,col14*%
X366077500Y-144145000D03*
%TD*%
%TO.P,SW5,1,1*%
%TO.N,Net-(D5-A)*%
X131127500Y-70485000D03*
%TO.P,SW5,2,2*%
%TO.N,col3*%
X137477500Y-67945000D03*
%TD*%
%TO.P,SW39,1,1*%
%TO.N,Net-(D39-A)*%
X221615000Y-108585000D03*
%TO.P,SW39,2,2*%
%TO.N,col7*%
X227965000Y-106045000D03*
%TD*%
%TO.P,SW46,1,1*%
%TO.N,Net-(D46-A)*%
X85883750Y-127635000D03*
%TO.P,SW46,2,2*%
%TO.N,col0*%
X92233750Y-125095000D03*
%TD*%
%TO.P,SW62,1,1*%
%TO.N,Net-(D62-A)*%
X123983750Y-146685000D03*
%TO.P,SW62,2,2*%
%TO.N,col2*%
X130333750Y-144145000D03*
%TD*%
%TO.P,SW19,1,1*%
%TO.N,Net-(D19-A)*%
X121602500Y-89535000D03*
%TO.P,SW19,2,2*%
%TO.N,col2*%
X127952500Y-86995000D03*
%TD*%
%TO.P,SW10,1,1*%
%TO.N,Net-(D10-A)*%
X226377500Y-70485000D03*
%TO.P,SW10,2,2*%
%TO.N,col8*%
X232727500Y-67945000D03*
%TD*%
%TO.P,SW36,1,1*%
%TO.N,Net-(D36-A)*%
X164465000Y-108585000D03*
%TO.P,SW36,2,2*%
%TO.N,col4*%
X170815000Y-106045000D03*
%TD*%
%TO.P,SW17,1,1*%
%TO.N,Net-(D17-A)*%
X78740000Y-89535000D03*
%TO.P,SW17,2,2*%
%TO.N,col0*%
X85090000Y-86995000D03*
%TD*%
D11*
%TO.P,J1,1,MISO*%
%TO.N,MISO*%
X182747225Y-152364145D03*
%TO.P,J1,2,VCC*%
%TO.N,+5V*%
X185287225Y-152364145D03*
%TO.P,J1,3,SCK*%
%TO.N,SCK*%
X182747225Y-149824145D03*
%TO.P,J1,4,MOSI*%
%TO.N,MOSI*%
X185287225Y-149824145D03*
%TO.P,J1,5,~{RST}*%
%TO.N,RESET*%
X182747225Y-147284145D03*
D12*
%TO.P,J1,6,GND*%
%TO.N,GND*%
X185287225Y-147284145D03*
%TD*%
D13*
%TO.P,USB1,13,SHIELD*%
%TO.N,GND*%
X216308750Y-61080000D03*
D14*
X216308750Y-65260000D03*
D13*
X224948750Y-61080000D03*
D14*
X224948750Y-65260000D03*
%TD*%
D15*
%TO.N,GND*%
X234739000Y-145745200D03*
X221488000Y-86233000D03*
X215106250Y-139700000D03*
X244221000Y-143383000D03*
X224663000Y-74803000D03*
X237279000Y-150317200D03*
X206827500Y-152212500D03*
X219075000Y-86233000D03*
X237279000Y-147904200D03*
X217505714Y-139681786D03*
X227965000Y-148082000D03*
X217392500Y-74803000D03*
%TO.N,+5V*%
X222758000Y-138557000D03*
X207518000Y-138557000D03*
X213614000Y-138557000D03*
X224514500Y-157988000D03*
X228981000Y-139446000D03*
X207518000Y-154305000D03*
%TO.N,VCC*%
X223078750Y-69723000D03*
X218178750Y-69735250D03*
%TO.N,row0*%
X216662000Y-79375000D03*
X226949000Y-80010000D03*
%TO.N,row1*%
X208534000Y-99060000D03*
X221742000Y-99060000D03*
X211201000Y-99060000D03*
X219583000Y-99060000D03*
%TO.N,row2*%
X214249000Y-118110000D03*
X205613000Y-118110000D03*
X217297000Y-118110000D03*
X202311000Y-118110000D03*
%TO.N,row3*%
X202693000Y-137160000D03*
X212598000Y-142240000D03*
X214376000Y-142240000D03*
X205232000Y-136525000D03*
X213106000Y-137104500D03*
X218948000Y-137033000D03*
%TO.N,SCK*%
X224790000Y-140081000D03*
X208275480Y-139926882D03*
X180340000Y-141986000D03*
%TO.N,MISO*%
X179539997Y-141986000D03*
X219075000Y-137866500D03*
X225468265Y-139247500D03*
X223631971Y-139247499D03*
X204460225Y-139195133D03*
%TO.N,RESET*%
X230251000Y-141605000D03*
X181140003Y-141986000D03*
X208280062Y-140726872D03*
X225552000Y-141533500D03*
X228841500Y-141605000D03*
%TO.N,MOSI*%
X223520000Y-141986000D03*
X208279963Y-141526874D03*
X187579000Y-148590000D03*
X181940006Y-141986000D03*
%TO.N,col0*%
X210439000Y-159930250D03*
%TO.N,col1*%
X209532609Y-159823862D03*
%TO.N,col2*%
X208788000Y-159529250D03*
%TO.N,col3*%
X208007873Y-159128250D03*
%TO.N,col4*%
X207332453Y-158699516D03*
%TO.N,col5*%
X203393235Y-144805765D03*
%TO.N,col7*%
X233807000Y-137922000D03*
%TO.N,col8*%
X232627630Y-157301775D03*
%TO.N,col9*%
X231902000Y-157901775D03*
%TO.N,col10*%
X231036114Y-158528250D03*
%TO.N,col11*%
X230251000Y-159128250D03*
%TO.N,col12*%
X229554019Y-159529250D03*
%TO.N,col13*%
X228756536Y-159814169D03*
%TO.N,col14*%
X227965000Y-159930250D03*
%TD*%
D16*
%TO.N,GND*%
X218186000Y-140843000D02*
X217487500Y-140144500D01*
X244221000Y-141986000D02*
X243078000Y-140843000D01*
X244221000Y-143383000D02*
X244221000Y-141986000D01*
X217487500Y-140144500D02*
X217487500Y-139700000D01*
X217487500Y-139700000D02*
X217505714Y-139681786D01*
X185287225Y-147314225D02*
X185287225Y-147284145D01*
X224663000Y-74803000D02*
X217392500Y-74803000D01*
X221488000Y-86233000D02*
X219075000Y-86233000D01*
X190185500Y-152212500D02*
X185287225Y-147314225D01*
X206827500Y-152212500D02*
X190185500Y-152212500D01*
X243078000Y-140843000D02*
X218186000Y-140843000D01*
X215106250Y-139700000D02*
X217487500Y-139700000D01*
%TO.N,+5V*%
X207518000Y-154305000D02*
X207518000Y-157226000D01*
X187706000Y-157988000D02*
X185287225Y-155569225D01*
X206756000Y-157988000D02*
X187706000Y-157988000D01*
X228092000Y-138557000D02*
X228981000Y-139446000D01*
X207518000Y-138557000D02*
X213614000Y-138557000D01*
X207518000Y-138557000D02*
X207518000Y-154305000D01*
X213614000Y-138557000D02*
X222758000Y-138557000D01*
X208280000Y-157988000D02*
X224514500Y-157988000D01*
X207518000Y-157226000D02*
X206756000Y-157988000D01*
X222758000Y-138557000D02*
X228092000Y-138557000D01*
X207518000Y-157226000D02*
X208280000Y-157988000D01*
X185287225Y-155569225D02*
X185287225Y-152364145D01*
D17*
%TO.N,VCC*%
X222929000Y-69735250D02*
X218178750Y-69735250D01*
X222941250Y-69723000D02*
X222929000Y-69735250D01*
X223078750Y-69723000D02*
X222941250Y-69723000D01*
%TO.N,row0*%
X216662000Y-79375000D02*
X217297000Y-80010000D01*
X217297000Y-80010000D02*
X226949000Y-80010000D01*
%TO.N,row1*%
X221742000Y-99060000D02*
X219583000Y-99060000D01*
X211201000Y-99060000D02*
X208534000Y-99060000D01*
%TO.N,row2*%
X205613000Y-118110000D02*
X202311000Y-118110000D01*
X217297000Y-118110000D02*
X214249000Y-118110000D01*
%TO.N,row3*%
X204597000Y-137160000D02*
X205232000Y-136525000D01*
X212598000Y-142240000D02*
X214376000Y-142240000D01*
X213685500Y-137104500D02*
X213741000Y-137160000D01*
X218313000Y-137160000D02*
X218440000Y-137033000D01*
X202693000Y-137160000D02*
X204597000Y-137160000D01*
X218440000Y-137033000D02*
X218948000Y-137033000D01*
X213741000Y-137160000D02*
X218313000Y-137160000D01*
X213106000Y-137104500D02*
X213685500Y-137104500D01*
%TO.N,SCK*%
X213094061Y-139926882D02*
X213940157Y-139080786D01*
X180340000Y-141986000D02*
X180340000Y-148717000D01*
X213940157Y-139080786D02*
X218963786Y-139080786D01*
X180340000Y-148717000D02*
X181447145Y-149824145D01*
X182584370Y-149987000D02*
X182747225Y-149824145D01*
X208275480Y-139926882D02*
X213094061Y-139926882D01*
X218963786Y-139080786D02*
X219964000Y-140081000D01*
X181447145Y-149824145D02*
X182747225Y-149824145D01*
X219964000Y-140081000D02*
X224790000Y-140081000D01*
%TO.N,MISO*%
X205788858Y-137866500D02*
X219075000Y-137866500D01*
X182336145Y-152364145D02*
X182747225Y-152364145D01*
X179539997Y-150964997D02*
X180939145Y-152364145D01*
X223631971Y-139247499D02*
X225099499Y-139247499D01*
X204460225Y-139195133D02*
X205788858Y-137866500D01*
X225099500Y-139247500D02*
X225468265Y-139247500D01*
X225099499Y-139247499D02*
X225099500Y-139247500D01*
X180939145Y-152364145D02*
X182747225Y-152364145D01*
X179539997Y-141986000D02*
X179539997Y-150964997D01*
%TO.N,RESET*%
X217966000Y-141385000D02*
X217307872Y-140726872D01*
X224210500Y-141533500D02*
X224062000Y-141385000D01*
X217307872Y-140726872D02*
X208280062Y-140726872D01*
X181140003Y-141986000D02*
X181140003Y-146773997D01*
X224062000Y-141385000D02*
X217966000Y-141385000D01*
X181140003Y-146773997D02*
X181650151Y-147284145D01*
X228841500Y-141605000D02*
X230251000Y-141605000D01*
X225552000Y-141533500D02*
X224210500Y-141533500D01*
X181650151Y-147284145D02*
X182747225Y-147284145D01*
%TO.N,MOSI*%
X181940006Y-145110006D02*
X182245000Y-145415000D01*
X216916000Y-141224000D02*
X209169000Y-141224000D01*
X187579000Y-145796000D02*
X187579000Y-148590000D01*
X182245000Y-145415000D02*
X187198000Y-145415000D01*
X187198000Y-145415000D02*
X187579000Y-145796000D01*
X217678000Y-141986000D02*
X216916000Y-141224000D01*
X209169000Y-141224000D02*
X208866126Y-141526874D01*
X223520000Y-141986000D02*
X217678000Y-141986000D01*
X208866126Y-141526874D02*
X208279963Y-141526874D01*
X181940006Y-141986000D02*
X181940006Y-145110006D01*
%TO.N,col0*%
X209839000Y-160530250D02*
X82931000Y-160530250D01*
X82708750Y-160308000D02*
X82708750Y-144145000D01*
X210439000Y-159930250D02*
X209839000Y-160530250D01*
X85090000Y-86995000D02*
X85090000Y-103663750D01*
X92233750Y-125095000D02*
X92233750Y-134620000D01*
X87471250Y-106045000D02*
X92233750Y-110807500D01*
X92233750Y-134620000D02*
X82708750Y-144145000D01*
X80327500Y-82232500D02*
X85090000Y-86995000D01*
X92233750Y-110807500D02*
X92233750Y-125095000D01*
X85090000Y-103663750D02*
X87471250Y-106045000D01*
X82931000Y-160530250D02*
X82708750Y-160308000D01*
X80327500Y-67945000D02*
X80327500Y-82232500D01*
%TO.N,col1*%
X106521250Y-159843500D02*
X106807000Y-160129250D01*
X209227221Y-160129250D02*
X209532609Y-159823862D01*
X106521250Y-144145000D02*
X106521250Y-159843500D01*
X108902500Y-86995000D02*
X108902500Y-101282500D01*
X99377500Y-77470000D02*
X108902500Y-86995000D01*
X106807000Y-160129250D02*
X209227221Y-160129250D01*
X113665000Y-106045000D02*
X123190000Y-115570000D01*
X108902500Y-101282500D02*
X113665000Y-106045000D01*
X116998750Y-125095000D02*
X106521250Y-135572500D01*
X123190000Y-115570000D02*
X123190000Y-125095000D01*
X123190000Y-125095000D02*
X116998750Y-125095000D01*
X106521250Y-135572500D02*
X106521250Y-144145000D01*
X99377500Y-67945000D02*
X99377500Y-77470000D01*
%TO.N,col2*%
X208788000Y-159529250D02*
X208589000Y-159728250D01*
X130333750Y-159633000D02*
X130333750Y-144145000D01*
X132715000Y-106045000D02*
X132715000Y-115570000D01*
X146886450Y-156508711D02*
X146886450Y-156516550D01*
X142240000Y-125095000D02*
X141433826Y-125095000D01*
X130333750Y-136195076D02*
X130333750Y-144145000D01*
X154795789Y-159728250D02*
X150202639Y-155135100D01*
X132715000Y-115570000D02*
X142240000Y-125095000D01*
X127952500Y-86995000D02*
X132715000Y-91757500D01*
X130429000Y-159728250D02*
X130333750Y-159633000D01*
X141433826Y-125095000D02*
X130333750Y-136195076D01*
X150202639Y-155135100D02*
X148260061Y-155135100D01*
X148260061Y-155135100D02*
X146886450Y-156508711D01*
X146886450Y-156516550D02*
X143674750Y-159728250D01*
X118427500Y-67945000D02*
X118427500Y-77470000D01*
X132715000Y-91757500D02*
X132715000Y-106045000D01*
X208589000Y-159728250D02*
X154795789Y-159728250D01*
X143674750Y-159728250D02*
X130429000Y-159728250D01*
X118427500Y-77470000D02*
X127952500Y-86995000D01*
%TO.N,col3*%
X161613250Y-159327250D02*
X161925000Y-159327250D01*
X151765000Y-106045000D02*
X151765000Y-115570000D01*
X161163000Y-125222000D02*
X161163000Y-158877000D01*
X151765000Y-115570000D02*
X161290000Y-125095000D01*
X147002500Y-86995000D02*
X147002500Y-101282500D01*
X207808873Y-159327250D02*
X208007873Y-159128250D01*
X137477500Y-77470000D02*
X147002500Y-86995000D01*
X147002500Y-101282500D02*
X151765000Y-106045000D01*
X161925000Y-159327250D02*
X206883000Y-159327250D01*
X161163000Y-158877000D02*
X161613250Y-159327250D01*
X161290000Y-125095000D02*
X161163000Y-125222000D01*
X206883000Y-159327250D02*
X207808873Y-159327250D01*
X137477500Y-67945000D02*
X137477500Y-77470000D01*
%TO.N,col4*%
X166052500Y-101282500D02*
X170815000Y-106045000D01*
X170815000Y-106045000D02*
X170815000Y-115570000D01*
X207105719Y-158926250D02*
X207332453Y-158699516D01*
X166052500Y-77470000D02*
X166052500Y-86995000D01*
X172720000Y-141097000D02*
X172720000Y-158926250D01*
X180340000Y-133477000D02*
X172720000Y-141097000D01*
X170815000Y-115570000D02*
X180340000Y-125095000D01*
X156527500Y-67945000D02*
X166052500Y-77470000D01*
X166052500Y-86995000D02*
X166052500Y-101282500D01*
X172720000Y-158926250D02*
X207105719Y-158926250D01*
X180340000Y-125095000D02*
X180340000Y-133477000D01*
%TO.N,col5*%
X189865000Y-106045000D02*
X199390000Y-115570000D01*
X201278581Y-145669000D02*
X199390000Y-143780419D01*
X175577500Y-77470000D02*
X185102500Y-86995000D01*
X175577500Y-67945000D02*
X175577500Y-77470000D01*
X185102500Y-86995000D02*
X185102500Y-101282500D01*
X199390000Y-143780419D02*
X199390000Y-125095000D01*
X203393235Y-144805765D02*
X202530000Y-145669000D01*
X202530000Y-145669000D02*
X201278581Y-145669000D01*
X199390000Y-115570000D02*
X199390000Y-125095000D01*
X185102500Y-101282500D02*
X189865000Y-106045000D01*
%TO.N,col6*%
X215704900Y-127830100D02*
X214928711Y-127830100D01*
X204152500Y-86995000D02*
X204152500Y-101282500D01*
X204152500Y-101282500D02*
X208915000Y-106045000D01*
X194627500Y-67945000D02*
X194627500Y-77470000D01*
X194627500Y-77470000D02*
X204152500Y-86995000D01*
X208915000Y-106045000D02*
X208915000Y-115570000D01*
X218440000Y-125095000D02*
X215704900Y-127830100D01*
X214928711Y-127830100D02*
X201771250Y-140987561D01*
X201771250Y-140987561D02*
X201771250Y-144145000D01*
X208915000Y-115570000D02*
X218440000Y-125095000D01*
%TO.N,col7*%
X227965000Y-106045000D02*
X227965000Y-115570000D01*
X227965000Y-115570000D02*
X237490000Y-125095000D01*
X213677500Y-77470000D02*
X223202500Y-86995000D01*
X237490000Y-134239000D02*
X233807000Y-137922000D01*
X213677500Y-67945000D02*
X213677500Y-77470000D01*
X223202500Y-101282500D02*
X227965000Y-106045000D01*
X237490000Y-125095000D02*
X237490000Y-134239000D01*
X223202500Y-86995000D02*
X223202500Y-101282500D01*
%TO.N,col8*%
X250818739Y-153483000D02*
X255459989Y-158124250D01*
X247015000Y-115570000D02*
X256540000Y-125095000D01*
X232678855Y-157353000D02*
X243773561Y-157353000D01*
X247643561Y-153483000D02*
X250818739Y-153483000D01*
X256540000Y-157235250D02*
X256540000Y-125095000D01*
X232727500Y-77470000D02*
X242252500Y-86995000D01*
X242252500Y-86995000D02*
X247015000Y-91757500D01*
X247015000Y-91757500D02*
X247015000Y-106045000D01*
X243773561Y-157353000D02*
X247643561Y-153483000D01*
X247015000Y-106045000D02*
X247015000Y-115570000D01*
X232627630Y-157301775D02*
X232678855Y-157353000D01*
X232727500Y-67945000D02*
X232727500Y-77470000D01*
X255459989Y-158124250D02*
X255651000Y-158124250D01*
X255651000Y-158124250D02*
X256540000Y-157235250D01*
%TO.N,col9*%
X270256000Y-158525250D02*
X270827500Y-157953750D01*
X261302500Y-101282500D02*
X266065000Y-106045000D01*
X251777500Y-67945000D02*
X261302500Y-77470000D01*
X243791886Y-157901775D02*
X247809661Y-153884000D01*
X266065000Y-115570000D02*
X275590000Y-125095000D01*
X231902000Y-157901775D02*
X243791886Y-157901775D01*
X250652639Y-153884000D02*
X255293889Y-158525250D01*
X261302500Y-77470000D02*
X261302500Y-86995000D01*
X266065000Y-106045000D02*
X266065000Y-115570000D01*
X247809661Y-153884000D02*
X250652639Y-153884000D01*
X275590000Y-139382500D02*
X270827500Y-144145000D01*
X261302500Y-86995000D02*
X261302500Y-101282500D01*
X270827500Y-157953750D02*
X270827500Y-144145000D01*
X255293889Y-158525250D02*
X270256000Y-158525250D01*
X275590000Y-125095000D02*
X275590000Y-139382500D01*
%TO.N,col10*%
X231046670Y-158517694D02*
X243743067Y-158517694D01*
X231036114Y-158528250D02*
X231046670Y-158517694D01*
X255127789Y-158926250D02*
X289306000Y-158926250D01*
X285115000Y-106045000D02*
X294640000Y-115570000D01*
X280352500Y-86995000D02*
X280352500Y-101282500D01*
X280352500Y-101282500D02*
X285115000Y-106045000D01*
X270827500Y-67945000D02*
X270827500Y-77470000D01*
X289877500Y-158354750D02*
X289877500Y-144145000D01*
X289306000Y-158926250D02*
X289877500Y-158354750D01*
X250486539Y-154285000D02*
X255127789Y-158926250D01*
X294640000Y-139382500D02*
X289877500Y-144145000D01*
X294640000Y-115570000D02*
X294640000Y-125095000D01*
X294640000Y-125095000D02*
X294640000Y-139382500D01*
X243743067Y-158517694D02*
X247975761Y-154285000D01*
X270827500Y-77470000D02*
X280352500Y-86995000D01*
X247975761Y-154285000D02*
X250486539Y-154285000D01*
%TO.N,col11*%
X230251000Y-159128250D02*
X243699611Y-159128250D01*
X304165000Y-106045000D02*
X304165000Y-139382500D01*
X299402500Y-86995000D02*
X304165000Y-91757500D01*
X248141861Y-154686000D02*
X250320439Y-154686000D01*
X308229000Y-159327250D02*
X308927500Y-158628750D01*
X254961689Y-159327250D02*
X308229000Y-159327250D01*
X289877500Y-67945000D02*
X289877500Y-77470000D01*
X289877500Y-77470000D02*
X299402500Y-86995000D01*
X308927500Y-158628750D02*
X308927500Y-144145000D01*
X304165000Y-139382500D02*
X308927500Y-144145000D01*
X250320439Y-154686000D02*
X254961689Y-159327250D01*
X304165000Y-91757500D02*
X304165000Y-106045000D01*
X243699611Y-159128250D02*
X248141861Y-154686000D01*
%TO.N,col12*%
X308927500Y-77470000D02*
X318452500Y-86995000D01*
X323019900Y-122908850D02*
X320833750Y-125095000D01*
X248259861Y-155135100D02*
X250202439Y-155135100D01*
X250202439Y-155135100D02*
X254795589Y-159728250D01*
X327279000Y-159728250D02*
X327977500Y-159029750D01*
X308927500Y-67945000D02*
X308927500Y-77470000D01*
X323019900Y-91562400D02*
X323019900Y-122908850D01*
X327977500Y-132238750D02*
X327977500Y-144145000D01*
X229554019Y-159529250D02*
X229753019Y-159728250D01*
X320833750Y-125095000D02*
X327977500Y-132238750D01*
X229753019Y-159728250D02*
X243666711Y-159728250D01*
X318452500Y-86995000D02*
X323019900Y-91562400D01*
X243666711Y-159728250D02*
X248259861Y-155135100D01*
X327977500Y-159029750D02*
X327977500Y-144145000D01*
X254795589Y-159728250D02*
X327279000Y-159728250D01*
%TO.N,col13*%
X346329000Y-160129250D02*
X264795000Y-160129250D01*
X337502500Y-82232500D02*
X342265000Y-86995000D01*
X341458826Y-86995000D02*
X335121250Y-93332576D01*
X347027500Y-125095000D02*
X347027500Y-144145000D01*
X337502500Y-67945000D02*
X337502500Y-82232500D01*
X229071617Y-160129250D02*
X228756536Y-159814169D01*
X347027500Y-159430750D02*
X346329000Y-160129250D01*
X347027500Y-117951250D02*
X347027500Y-125095000D01*
X335121250Y-93332576D02*
X335121250Y-106045000D01*
X347027500Y-144145000D02*
X347027500Y-159430750D01*
X342265000Y-86995000D02*
X341458826Y-86995000D01*
X264795000Y-160129250D02*
X229071617Y-160129250D01*
X335121250Y-106045000D02*
X347027500Y-117951250D01*
%TO.N,col14*%
X366077500Y-159577750D02*
X366077500Y-144145000D01*
X366077500Y-67945000D02*
X366077500Y-86995000D01*
X365125000Y-160530250D02*
X366077500Y-159577750D01*
X228565000Y-160530250D02*
X365125000Y-160530250D01*
X366077500Y-125095000D02*
X366077500Y-144145000D01*
X227965000Y-159930250D02*
X228565000Y-160530250D01*
X366077500Y-106045000D02*
X366077500Y-125095000D01*
X366077500Y-86995000D02*
X366077500Y-106045000D01*
%TD*%
%TA.AperFunction,Conductor*%
%TO.N,GND*%
G36*
X228643000Y-147142200D02*
G01*
X228643000Y-152222200D01*
X226992000Y-149428200D01*
X226910663Y-149428200D01*
X225172211Y-149428200D01*
X225148020Y-149425817D01*
X225132744Y-149422778D01*
X225107656Y-149417788D01*
X225062956Y-149399272D01*
X225039086Y-149383322D01*
X225004877Y-149349113D01*
X224988927Y-149325243D01*
X224970412Y-149280546D01*
X224962381Y-149240171D01*
X224960000Y-149215989D01*
X224960000Y-147234696D01*
X224962486Y-147209990D01*
X224970864Y-147168799D01*
X224990170Y-147123304D01*
X225006757Y-147099161D01*
X225042300Y-147064823D01*
X225067001Y-147049077D01*
X225113133Y-147031351D01*
X225154588Y-147024397D01*
X225179363Y-147022764D01*
X228643000Y-147142200D01*
G37*
%TD.AperFunction*%
%TD*%
%TA.AperFunction,Conductor*%
%TO.N,GND*%
G36*
X228571604Y-142206948D02*
G01*
X228617662Y-142216378D01*
X228651756Y-142230501D01*
X228651760Y-142230501D01*
X228651761Y-142230502D01*
X228777428Y-142255500D01*
X228777431Y-142255500D01*
X228905571Y-142255500D01*
X229031239Y-142230502D01*
X229031239Y-142230501D01*
X229031244Y-142230501D01*
X229051005Y-142222315D01*
X229099849Y-142212883D01*
X230020408Y-142223227D01*
X230054947Y-142230321D01*
X230055429Y-142228733D01*
X230061263Y-142230503D01*
X230186928Y-142255500D01*
X230186931Y-142255500D01*
X230315070Y-142255500D01*
X230345269Y-142249492D01*
X230440218Y-142230605D01*
X230465795Y-142228231D01*
X238081047Y-142313795D01*
X238112854Y-142318316D01*
X238164524Y-142332681D01*
X238219480Y-142364961D01*
X238245391Y-142391166D01*
X238277053Y-142446482D01*
X238290835Y-142498304D01*
X238295000Y-142530174D01*
X238295000Y-153279989D01*
X238292617Y-153304182D01*
X238284588Y-153344544D01*
X238266072Y-153389243D01*
X238250122Y-153413113D01*
X238215913Y-153447322D01*
X238192043Y-153463272D01*
X238147344Y-153481788D01*
X238130841Y-153485070D01*
X238106978Y-153489817D01*
X238082789Y-153492200D01*
X227079560Y-153492200D01*
X227055198Y-153489783D01*
X227034504Y-153485636D01*
X227014564Y-153481641D01*
X226969606Y-153462871D01*
X226945643Y-153446713D01*
X226911387Y-153412069D01*
X226896366Y-153389243D01*
X226895502Y-153387929D01*
X226877238Y-153342762D01*
X226869553Y-153302039D01*
X226867410Y-153277651D01*
X226908507Y-149620101D01*
X226908506Y-149620095D01*
X226910663Y-149428200D01*
X226910662Y-149428200D01*
X226989615Y-142401392D01*
X226992267Y-142377248D01*
X227000753Y-142336956D01*
X227019768Y-142292475D01*
X227035985Y-142268785D01*
X227070578Y-142234960D01*
X227094623Y-142219281D01*
X227139525Y-142201270D01*
X227179987Y-142193693D01*
X227204198Y-142191584D01*
X228571604Y-142206948D01*
G37*
%TD.AperFunction*%
%TD*%
M02*
