%TF.GenerationSoftware,KiCad,Pcbnew,9.0.1*%
%TF.CreationDate,2025-04-24T13:53:35-06:00*%
%TF.ProjectId,PCBv1,50434276-312e-46b6-9963-61645f706362,rev?*%
%TF.SameCoordinates,Original*%
%TF.FileFunction,Copper,L2,Bot*%
%TF.FilePolarity,Positive*%
%FSLAX46Y46*%
G04 Gerber Fmt 4.6, Leading zero omitted, Abs format (unit mm)*
G04 Created by KiCad (PCBNEW 9.0.1) date 2025-04-24 13:53:35*
%MOMM*%
%LPD*%
G01*
G04 APERTURE LIST*
G04 Aperture macros list*
%AMRoundRect*
0 Rectangle with rounded corners*
0 $1 Rounding radius*
0 $2 $3 $4 $5 $6 $7 $8 $9 X,Y pos of 4 corners*
0 Add a 4 corners polygon primitive as box body*
4,1,4,$2,$3,$4,$5,$6,$7,$8,$9,$2,$3,0*
0 Add four circle primitives for the rounded corners*
1,1,$1+$1,$2,$3*
1,1,$1+$1,$4,$5*
1,1,$1+$1,$6,$7*
1,1,$1+$1,$8,$9*
0 Add four rect primitives between the rounded corners*
20,1,$1+$1,$2,$3,$4,$5,0*
20,1,$1+$1,$4,$5,$6,$7,0*
20,1,$1+$1,$6,$7,$8,$9,0*
20,1,$1+$1,$8,$9,$2,$3,0*%
G04 Aperture macros list end*
%TA.AperFunction,ComponentPad*%
%ADD10C,2.250000*%
%TD*%
%TA.AperFunction,SMDPad,CuDef*%
%ADD11RoundRect,0.225000X0.375000X-0.225000X0.375000X0.225000X-0.375000X0.225000X-0.375000X-0.225000X0*%
%TD*%
%TA.AperFunction,SMDPad,CuDef*%
%ADD12RoundRect,0.250000X0.350000X0.450000X-0.350000X0.450000X-0.350000X-0.450000X0.350000X-0.450000X0*%
%TD*%
%TA.AperFunction,SMDPad,CuDef*%
%ADD13RoundRect,0.250000X0.337500X0.475000X-0.337500X0.475000X-0.337500X-0.475000X0.337500X-0.475000X0*%
%TD*%
%TA.AperFunction,SMDPad,CuDef*%
%ADD14RoundRect,0.250000X-0.475000X0.337500X-0.475000X-0.337500X0.475000X-0.337500X0.475000X0.337500X0*%
%TD*%
%TA.AperFunction,SMDPad,CuDef*%
%ADD15RoundRect,0.150000X0.625000X-0.150000X0.625000X0.150000X-0.625000X0.150000X-0.625000X-0.150000X0*%
%TD*%
%TA.AperFunction,SMDPad,CuDef*%
%ADD16RoundRect,0.250000X0.650000X-0.350000X0.650000X0.350000X-0.650000X0.350000X-0.650000X-0.350000X0*%
%TD*%
%TA.AperFunction,SMDPad,CuDef*%
%ADD17R,1.100000X1.800000*%
%TD*%
%TA.AperFunction,ComponentPad*%
%ADD18C,1.700000*%
%TD*%
%TA.AperFunction,ComponentPad*%
%ADD19R,1.700000X1.700000*%
%TD*%
%TA.AperFunction,SMDPad,CuDef*%
%ADD20RoundRect,0.250000X-0.337500X-0.475000X0.337500X-0.475000X0.337500X0.475000X-0.337500X0.475000X0*%
%TD*%
%TA.AperFunction,SMDPad,CuDef*%
%ADD21RoundRect,0.250000X0.475000X-0.337500X0.475000X0.337500X-0.475000X0.337500X-0.475000X-0.337500X0*%
%TD*%
%TA.AperFunction,SMDPad,CuDef*%
%ADD22R,0.550000X1.500000*%
%TD*%
%TA.AperFunction,SMDPad,CuDef*%
%ADD23R,1.500000X0.550000*%
%TD*%
%TA.AperFunction,SMDPad,CuDef*%
%ADD24R,1.800000X2.100000*%
%TD*%
%TA.AperFunction,ViaPad*%
%ADD25C,0.600000*%
%TD*%
%TA.AperFunction,Conductor*%
%ADD26C,0.381000*%
%TD*%
%TA.AperFunction,Conductor*%
%ADD27C,0.200000*%
%TD*%
G04 APERTURE END LIST*
D10*
%TO.P,SW61,1,1*%
%TO.N,Net-(D61-A)*%
X100171250Y-146685000D03*
%TO.P,SW61,2,2*%
%TO.N,col1*%
X106521250Y-144145000D03*
%TD*%
%TO.P,SW24,1,1*%
%TO.N,Net-(D24-A)*%
X216852500Y-89535000D03*
%TO.P,SW24,2,2*%
%TO.N,col7*%
X223202500Y-86995000D03*
%TD*%
%TO.P,SW26,1,1*%
%TO.N,Net-(D26-A)*%
X254952500Y-89535000D03*
%TO.P,SW26,2,2*%
%TO.N,col9*%
X261302500Y-86995000D03*
%TD*%
%TO.P,SW27,1,1*%
%TO.N,Net-(D27-A)*%
X274002500Y-89535000D03*
%TO.P,SW27,2,2*%
%TO.N,col10*%
X280352500Y-86995000D03*
%TD*%
%TO.P,SW41,1,1*%
%TO.N,Net-(D41-A)*%
X259715000Y-108585000D03*
%TO.P,SW41,2,2*%
%TO.N,col9*%
X266065000Y-106045000D03*
%TD*%
%TO.P,SW67,1,1*%
%TO.N,Net-(D67-A)*%
X321627500Y-146685000D03*
%TO.P,SW67,2,2*%
%TO.N,col12*%
X327977500Y-144145000D03*
%TD*%
%TO.P,SW56,1,1*%
%TO.N,Net-(D56-A)*%
X288290000Y-127635000D03*
%TO.P,SW56,2,2*%
%TO.N,col10*%
X294640000Y-125095000D03*
%TD*%
%TO.P,SW52,1,1*%
%TO.N,Net-(D52-A)*%
X212090000Y-127635000D03*
%TO.P,SW52,2,2*%
%TO.N,col6*%
X218440000Y-125095000D03*
%TD*%
%TO.P,SW42,1,1*%
%TO.N,Net-(D42-A)*%
X278765000Y-108585000D03*
%TO.P,SW42,2,2*%
%TO.N,col10*%
X285115000Y-106045000D03*
%TD*%
%TO.P,SW3,1,1*%
%TO.N,Net-(D3-A)*%
X93027500Y-70485000D03*
%TO.P,SW3,2,2*%
%TO.N,col1*%
X99377500Y-67945000D03*
%TD*%
%TO.P,SW68,1,1*%
%TO.N,Net-(D68-A)*%
X340677500Y-146685000D03*
%TO.P,SW68,2,2*%
%TO.N,col13*%
X347027500Y-144145000D03*
%TD*%
%TO.P,SW59,1,1*%
%TO.N,Net-(D59-A)*%
X359727500Y-127635000D03*
%TO.P,SW59,2,2*%
%TO.N,col14*%
X366077500Y-125095000D03*
%TD*%
%TO.P,SW31,1,1*%
%TO.N,Net-(D31-A)*%
X359727500Y-89535000D03*
%TO.P,SW31,2,2*%
%TO.N,col14*%
X366077500Y-86995000D03*
%TD*%
%TO.P,SW34,1,1*%
%TO.N,Net-(D34-A)*%
X126365000Y-108585000D03*
%TO.P,SW34,2,2*%
%TO.N,col2*%
X132715000Y-106045000D03*
%TD*%
%TO.P,SW16,1,1*%
%TO.N,Net-(D16-A)*%
X359727500Y-70485000D03*
%TO.P,SW16,2,2*%
%TO.N,col14*%
X366077500Y-67945000D03*
%TD*%
%TO.P,SW66,1,1*%
%TO.N,Net-(D66-A)*%
X302577500Y-146685000D03*
%TO.P,SW66,2,2*%
%TO.N,col11*%
X308927500Y-144145000D03*
%TD*%
%TO.P,SW6,1,1*%
%TO.N,Net-(D6-A)*%
X150177500Y-70485000D03*
%TO.P,SW6,2,2*%
%TO.N,col4*%
X156527500Y-67945000D03*
%TD*%
%TO.P,SW18,1,1*%
%TO.N,Net-(D18-A)*%
X102552500Y-89535000D03*
%TO.P,SW18,2,2*%
%TO.N,col1*%
X108902500Y-86995000D03*
%TD*%
%TO.P,SW8,1,1*%
%TO.N,Net-(D8-A)*%
X188277500Y-70485000D03*
%TO.P,SW8,2,2*%
%TO.N,col6*%
X194627500Y-67945000D03*
%TD*%
%TO.P,SW22,1,1*%
%TO.N,Net-(D22-A)*%
X178752500Y-89535000D03*
%TO.P,SW22,2,2*%
%TO.N,col5*%
X185102500Y-86995000D03*
%TD*%
%TO.P,SW40,1,1*%
%TO.N,Net-(D40-A)*%
X240665000Y-108585000D03*
%TO.P,SW40,2,2*%
%TO.N,col8*%
X247015000Y-106045000D03*
%TD*%
%TO.P,SW53,1,1*%
%TO.N,Net-(D53-A)*%
X231140000Y-127635000D03*
%TO.P,SW53,2,2*%
%TO.N,col7*%
X237490000Y-125095000D03*
%TD*%
%TO.P,SW15,1,1*%
%TO.N,Net-(D15-A)*%
X331152500Y-70485000D03*
%TO.P,SW15,2,2*%
%TO.N,col13*%
X337502500Y-67945000D03*
%TD*%
%TO.P,SW9,1,1*%
%TO.N,Net-(D9-A)*%
X207327500Y-70485000D03*
%TO.P,SW9,2,2*%
%TO.N,col7*%
X213677500Y-67945000D03*
%TD*%
%TO.P,SW20,1,1*%
%TO.N,Net-(D20-A)*%
X140652500Y-89535000D03*
%TO.P,SW20,2,2*%
%TO.N,col3*%
X147002500Y-86995000D03*
%TD*%
%TO.P,SW48,1,1*%
%TO.N,Net-(D48-A)*%
X135890000Y-127635000D03*
%TO.P,SW48,2,2*%
%TO.N,col2*%
X142240000Y-125095000D03*
%TD*%
%TO.P,SW58,1,1*%
%TO.N,Net-(D58-A)*%
X340677500Y-127635000D03*
%TO.P,SW58,2,2*%
%TO.N,col13*%
X347027500Y-125095000D03*
%TD*%
%TO.P,SW60,1,1*%
%TO.N,Net-(D60-A)*%
X76358750Y-146685000D03*
%TO.P,SW60,2,2*%
%TO.N,col0*%
X82708750Y-144145000D03*
%TD*%
%TO.P,SW38,1,1*%
%TO.N,Net-(D38-A)*%
X202565000Y-108585000D03*
%TO.P,SW38,2,2*%
%TO.N,col6*%
X208915000Y-106045000D03*
%TD*%
%TO.P,SW54,1,1*%
%TO.N,Net-(D54-A)*%
X250190000Y-127635000D03*
%TO.P,SW54,2,2*%
%TO.N,col8*%
X256540000Y-125095000D03*
%TD*%
%TO.P,SW65,1,1*%
%TO.N,Net-(D65-A)*%
X283527500Y-146685000D03*
%TO.P,SW65,2,2*%
%TO.N,col10*%
X289877500Y-144145000D03*
%TD*%
%TO.P,SW11,1,1*%
%TO.N,Net-(D11-A)*%
X245427500Y-70485000D03*
%TO.P,SW11,2,2*%
%TO.N,col9*%
X251777500Y-67945000D03*
%TD*%
%TO.P,SW7,1,1*%
%TO.N,Net-(D7-A)*%
X169227500Y-70485000D03*
%TO.P,SW7,2,2*%
%TO.N,col5*%
X175577500Y-67945000D03*
%TD*%
%TO.P,SW12,1,1*%
%TO.N,Net-(D12-A)*%
X264477500Y-70485000D03*
%TO.P,SW12,2,2*%
%TO.N,col10*%
X270827500Y-67945000D03*
%TD*%
%TO.P,SW37,1,1*%
%TO.N,Net-(D37-A)*%
X183515000Y-108585000D03*
%TO.P,SW37,2,2*%
%TO.N,col5*%
X189865000Y-106045000D03*
%TD*%
%TO.P,SW13,1,1*%
%TO.N,Net-(D13-A)*%
X283527500Y-70485000D03*
%TO.P,SW13,2,2*%
%TO.N,col11*%
X289877500Y-67945000D03*
%TD*%
%TO.P,SW51,1,1*%
%TO.N,Net-(D51-A)*%
X193040000Y-127635000D03*
%TO.P,SW51,2,2*%
%TO.N,col5*%
X199390000Y-125095000D03*
%TD*%
%TO.P,SW47,1,1*%
%TO.N,Net-(D47-A)*%
X116840000Y-127635000D03*
%TO.P,SW47,2,2*%
%TO.N,col1*%
X123190000Y-125095000D03*
%TD*%
%TO.P,SW29,1,1*%
%TO.N,Net-(D29-A)*%
X312102500Y-89535000D03*
%TO.P,SW29,2,2*%
%TO.N,col12*%
X318452500Y-86995000D03*
%TD*%
%TO.P,SW21,1,1*%
%TO.N,Net-(D21-A)*%
X159702500Y-89535000D03*
%TO.P,SW21,2,2*%
%TO.N,col4*%
X166052500Y-86995000D03*
%TD*%
%TO.P,SW30,1,1*%
%TO.N,Net-(D30-A)*%
X335915000Y-89535000D03*
%TO.P,SW30,2,2*%
%TO.N,col13*%
X342265000Y-86995000D03*
%TD*%
%TO.P,SW33,1,1*%
%TO.N,Net-(D33-A)*%
X107315000Y-108585000D03*
%TO.P,SW33,2,2*%
%TO.N,col1*%
X113665000Y-106045000D03*
%TD*%
%TO.P,SW35,1,1*%
%TO.N,Net-(D35-A)*%
X145415000Y-108585000D03*
%TO.P,SW35,2,2*%
%TO.N,col3*%
X151765000Y-106045000D03*
%TD*%
%TO.P,SW44,1,1*%
%TO.N,Net-(D44-A)*%
X328771250Y-108585000D03*
%TO.P,SW44,2,2*%
%TO.N,col13*%
X335121250Y-106045000D03*
%TD*%
%TO.P,SW45,1,1*%
%TO.N,Net-(D45-A)*%
X359727500Y-108585000D03*
%TO.P,SW45,2,2*%
%TO.N,col14*%
X366077500Y-106045000D03*
%TD*%
%TO.P,SW14,1,1*%
%TO.N,Net-(D14-A)*%
X302577500Y-70485000D03*
%TO.P,SW14,2,2*%
%TO.N,col12*%
X308927500Y-67945000D03*
%TD*%
%TO.P,SW23,1,1*%
%TO.N,Net-(D23-A)*%
X197802500Y-89535000D03*
%TO.P,SW23,2,2*%
%TO.N,col6*%
X204152500Y-86995000D03*
%TD*%
%TO.P,SW32,1,1*%
%TO.N,Net-(D32-A)*%
X81121250Y-108585000D03*
%TO.P,SW32,2,2*%
%TO.N,col0*%
X87471250Y-106045000D03*
%TD*%
%TO.P,SW49,1,1*%
%TO.N,Net-(D49-A)*%
X154940000Y-127635000D03*
%TO.P,SW49,2,2*%
%TO.N,col3*%
X161290000Y-125095000D03*
%TD*%
%TO.P,SW1,1,1*%
%TO.N,Net-(D2-A)*%
X73977500Y-70485000D03*
%TO.P,SW1,2,2*%
%TO.N,col0*%
X80327500Y-67945000D03*
%TD*%
%TO.P,SW4,1,1*%
%TO.N,Net-(D4-A)*%
X112077500Y-70485000D03*
%TO.P,SW4,2,2*%
%TO.N,col2*%
X118427500Y-67945000D03*
%TD*%
%TO.P,SW63,1,1*%
%TO.N,Net-(D63-A)*%
X195421250Y-146685000D03*
%TO.P,SW63,2,2*%
%TO.N,col6*%
X201771250Y-144145000D03*
%TD*%
%TO.P,SW64,1,1*%
%TO.N,Net-(D64-A)*%
X264477500Y-146685000D03*
%TO.P,SW64,2,2*%
%TO.N,col9*%
X270827500Y-144145000D03*
%TD*%
%TO.P,SW43,1,1*%
%TO.N,Net-(D43-A)*%
X297815000Y-108585000D03*
%TO.P,SW43,2,2*%
%TO.N,col11*%
X304165000Y-106045000D03*
%TD*%
%TO.P,SW25,1,1*%
%TO.N,Net-(D25-A)*%
X235902500Y-89535000D03*
%TO.P,SW25,2,2*%
%TO.N,col8*%
X242252500Y-86995000D03*
%TD*%
%TO.P,SW55,1,1*%
%TO.N,Net-(D55-A)*%
X269240000Y-127635000D03*
%TO.P,SW55,2,2*%
%TO.N,col9*%
X275590000Y-125095000D03*
%TD*%
%TO.P,SW50,1,1*%
%TO.N,Net-(D50-A)*%
X173990000Y-127635000D03*
%TO.P,SW50,2,2*%
%TO.N,col4*%
X180340000Y-125095000D03*
%TD*%
%TO.P,SW28,1,1*%
%TO.N,Net-(D28-A)*%
X293052500Y-89535000D03*
%TO.P,SW28,2,2*%
%TO.N,col11*%
X299402500Y-86995000D03*
%TD*%
%TO.P,SW57,1,1*%
%TO.N,Net-(D57-A)*%
X314483750Y-127635000D03*
%TO.P,SW57,2,2*%
%TO.N,col12*%
X320833750Y-125095000D03*
%TD*%
%TO.P,SW69,1,1*%
%TO.N,Net-(D69-A)*%
X359727500Y-146685000D03*
%TO.P,SW69,2,2*%
%TO.N,col14*%
X366077500Y-144145000D03*
%TD*%
%TO.P,SW5,1,1*%
%TO.N,Net-(D5-A)*%
X131127500Y-70485000D03*
%TO.P,SW5,2,2*%
%TO.N,col3*%
X137477500Y-67945000D03*
%TD*%
%TO.P,SW39,1,1*%
%TO.N,Net-(D39-A)*%
X221615000Y-108585000D03*
%TO.P,SW39,2,2*%
%TO.N,col7*%
X227965000Y-106045000D03*
%TD*%
%TO.P,SW46,1,1*%
%TO.N,Net-(D46-A)*%
X85883750Y-127635000D03*
%TO.P,SW46,2,2*%
%TO.N,col0*%
X92233750Y-125095000D03*
%TD*%
%TO.P,SW62,1,1*%
%TO.N,Net-(D62-A)*%
X123983750Y-146685000D03*
%TO.P,SW62,2,2*%
%TO.N,col2*%
X130333750Y-144145000D03*
%TD*%
%TO.P,SW19,1,1*%
%TO.N,Net-(D19-A)*%
X121602500Y-89535000D03*
%TO.P,SW19,2,2*%
%TO.N,col2*%
X127952500Y-86995000D03*
%TD*%
%TO.P,SW10,1,1*%
%TO.N,Net-(D10-A)*%
X226377500Y-70485000D03*
%TO.P,SW10,2,2*%
%TO.N,col8*%
X232727500Y-67945000D03*
%TD*%
%TO.P,SW36,1,1*%
%TO.N,Net-(D36-A)*%
X164465000Y-108585000D03*
%TO.P,SW36,2,2*%
%TO.N,col4*%
X170815000Y-106045000D03*
%TD*%
%TO.P,SW17,1,1*%
%TO.N,Net-(D17-A)*%
X78740000Y-89535000D03*
%TO.P,SW17,2,2*%
%TO.N,col0*%
X85090000Y-86995000D03*
%TD*%
D11*
%TO.P,D52,1,K*%
%TO.N,row3*%
X209867500Y-136525000D03*
%TO.P,D52,2,A*%
%TO.N,Net-(D52-A)*%
X209867500Y-133225000D03*
%TD*%
%TO.P,D10,1,K*%
%TO.N,row0*%
X236061250Y-79375000D03*
%TO.P,D10,2,A*%
%TO.N,Net-(D10-A)*%
X236061250Y-76075000D03*
%TD*%
%TO.P,D41,1,K*%
%TO.N,row2*%
X257492500Y-117475000D03*
%TO.P,D41,2,A*%
%TO.N,Net-(D41-A)*%
X257492500Y-114175000D03*
%TD*%
%TO.P,D62,1,K*%
%TO.N,row4*%
X121761250Y-155700000D03*
%TO.P,D62,2,A*%
%TO.N,Net-(D62-A)*%
X121761250Y-152400000D03*
%TD*%
%TO.P,D67,1,K*%
%TO.N,row4*%
X319405000Y-155575000D03*
%TO.P,D67,2,A*%
%TO.N,Net-(D67-A)*%
X319405000Y-152275000D03*
%TD*%
%TO.P,D36,1,K*%
%TO.N,row2*%
X162242500Y-117475000D03*
%TO.P,D36,2,A*%
%TO.N,Net-(D36-A)*%
X162242500Y-114175000D03*
%TD*%
%TO.P,D49,1,K*%
%TO.N,row3*%
X152717500Y-136525000D03*
%TO.P,D49,2,A*%
%TO.N,Net-(D49-A)*%
X152717500Y-133225000D03*
%TD*%
%TO.P,D56,1,K*%
%TO.N,row3*%
X286067500Y-136525000D03*
%TO.P,D56,2,A*%
%TO.N,Net-(D56-A)*%
X286067500Y-133225000D03*
%TD*%
D12*
%TO.P,R5,1*%
%TO.N,+5V*%
X242554000Y-142494000D03*
%TO.P,R5,2*%
%TO.N,RESET*%
X240554000Y-142494000D03*
%TD*%
D11*
%TO.P,D47,1,K*%
%TO.N,row3*%
X114617500Y-136525000D03*
%TO.P,D47,2,A*%
%TO.N,Net-(D47-A)*%
X114617500Y-133225000D03*
%TD*%
D13*
%TO.P,C6,1*%
%TO.N,GND*%
X236263000Y-150241000D03*
%TO.P,C6,2*%
%TO.N,XTAL1*%
X234188000Y-150241000D03*
%TD*%
D11*
%TO.P,D28,1,K*%
%TO.N,row1*%
X290830000Y-98425000D03*
%TO.P,D28,2,A*%
%TO.N,Net-(D28-A)*%
X290830000Y-95125000D03*
%TD*%
%TO.P,D35,1,K*%
%TO.N,row2*%
X143192500Y-117475000D03*
%TO.P,D35,2,A*%
%TO.N,Net-(D35-A)*%
X143192500Y-114175000D03*
%TD*%
D14*
%TO.P,C2,1*%
%TO.N,+5V*%
X229532000Y-143183700D03*
%TO.P,C2,2*%
%TO.N,GND*%
X229532000Y-145258700D03*
%TD*%
D11*
%TO.P,D6,1,K*%
%TO.N,row0*%
X147955000Y-79375000D03*
%TO.P,D6,2,A*%
%TO.N,Net-(D6-A)*%
X147955000Y-76075000D03*
%TD*%
%TO.P,D57,1,K*%
%TO.N,row3*%
X312261250Y-136525000D03*
%TO.P,D57,2,A*%
%TO.N,Net-(D57-A)*%
X312261250Y-133225000D03*
%TD*%
D15*
%TO.P,J2,1,Pin_1*%
%TO.N,+5V*%
X220821000Y-68810000D03*
%TO.P,J2,2,Pin_2*%
%TO.N,D-*%
X220821000Y-67810000D03*
%TO.P,J2,3,Pin_3*%
%TO.N,D+*%
X220821000Y-66810000D03*
%TO.P,J2,4,Pin_4*%
%TO.N,GND*%
X220821000Y-65810000D03*
D16*
%TO.P,J2,MP,MountPin*%
X216946000Y-70110000D03*
X216946000Y-64510000D03*
%TD*%
D11*
%TO.P,D22,1,K*%
%TO.N,row1*%
X176530000Y-98425000D03*
%TO.P,D22,2,A*%
%TO.N,Net-(D22-A)*%
X176530000Y-95125000D03*
%TD*%
%TO.P,D44,1,K*%
%TO.N,row2*%
X326548750Y-117475000D03*
%TO.P,D44,2,A*%
%TO.N,Net-(D44-A)*%
X326548750Y-114175000D03*
%TD*%
%TO.P,D43,1,K*%
%TO.N,row2*%
X295592500Y-117475000D03*
%TO.P,D43,2,A*%
%TO.N,Net-(D43-A)*%
X295592500Y-114175000D03*
%TD*%
%TO.P,D3,1,K*%
%TO.N,row0*%
X90805000Y-79375000D03*
%TO.P,D3,2,A*%
%TO.N,Net-(D3-A)*%
X90805000Y-76075000D03*
%TD*%
%TO.P,D16,1,K*%
%TO.N,row0*%
X357505000Y-79375000D03*
%TO.P,D16,2,A*%
%TO.N,Net-(D16-A)*%
X357505000Y-76075000D03*
%TD*%
%TO.P,D29,1,K*%
%TO.N,row1*%
X309880000Y-98425000D03*
%TO.P,D29,2,A*%
%TO.N,Net-(D29-A)*%
X309880000Y-95125000D03*
%TD*%
%TO.P,D33,1,K*%
%TO.N,row2*%
X105092500Y-117475000D03*
%TO.P,D33,2,A*%
%TO.N,Net-(D33-A)*%
X105092500Y-114175000D03*
%TD*%
%TO.P,D45,1,K*%
%TO.N,row2*%
X357505000Y-117475000D03*
%TO.P,D45,2,A*%
%TO.N,Net-(D45-A)*%
X357505000Y-114175000D03*
%TD*%
%TO.P,D31,1,K*%
%TO.N,row1*%
X357505000Y-98425000D03*
%TO.P,D31,2,A*%
%TO.N,Net-(D31-A)*%
X357505000Y-95125000D03*
%TD*%
%TO.P,D68,1,K*%
%TO.N,row4*%
X338455000Y-155575000D03*
%TO.P,D68,2,A*%
%TO.N,Net-(D68-A)*%
X338455000Y-152275000D03*
%TD*%
%TO.P,D30,1,K*%
%TO.N,row1*%
X333692500Y-98425000D03*
%TO.P,D30,2,A*%
%TO.N,Net-(D30-A)*%
X333692500Y-95125000D03*
%TD*%
%TO.P,D46,1,K*%
%TO.N,row3*%
X83661250Y-136525000D03*
%TO.P,D46,2,A*%
%TO.N,Net-(D46-A)*%
X83661250Y-133225000D03*
%TD*%
%TO.P,D5,1,K*%
%TO.N,row0*%
X128905000Y-79375000D03*
%TO.P,D5,2,A*%
%TO.N,Net-(D5-A)*%
X128905000Y-76075000D03*
%TD*%
%TO.P,D38,1,K*%
%TO.N,row2*%
X200342500Y-117475000D03*
%TO.P,D38,2,A*%
%TO.N,Net-(D38-A)*%
X200342500Y-114175000D03*
%TD*%
%TO.P,D34,1,K*%
%TO.N,row2*%
X124142500Y-117475000D03*
%TO.P,D34,2,A*%
%TO.N,Net-(D34-A)*%
X124142500Y-114175000D03*
%TD*%
D13*
%TO.P,C7,1*%
%TO.N,GND*%
X236237600Y-147904200D03*
%TO.P,C7,2*%
%TO.N,XTAL2*%
X234162600Y-147904200D03*
%TD*%
D11*
%TO.P,D42,1,K*%
%TO.N,row2*%
X276542500Y-117475000D03*
%TO.P,D42,2,A*%
%TO.N,Net-(D42-A)*%
X276542500Y-114175000D03*
%TD*%
%TO.P,D69,1,K*%
%TO.N,row4*%
X357505000Y-155637500D03*
%TO.P,D69,2,A*%
%TO.N,Net-(D69-A)*%
X357505000Y-152337500D03*
%TD*%
D17*
%TO.P,SW2,1*%
%TO.N,RESET*%
X240521000Y-145998000D03*
X240521000Y-152198000D03*
%TO.P,SW2,2*%
%TO.N,GND*%
X244221000Y-145998000D03*
X244221000Y-152198000D03*
%TD*%
D11*
%TO.P,D55,1,K*%
%TO.N,row3*%
X267017500Y-136525000D03*
%TO.P,D55,2,A*%
%TO.N,Net-(D55-A)*%
X267017500Y-133225000D03*
%TD*%
%TO.P,D24,1,K*%
%TO.N,row1*%
X214630000Y-98425000D03*
%TO.P,D24,2,A*%
%TO.N,Net-(D24-A)*%
X214630000Y-95125000D03*
%TD*%
%TO.P,D23,1,K*%
%TO.N,row1*%
X195580000Y-98425000D03*
%TO.P,D23,2,A*%
%TO.N,Net-(D23-A)*%
X195580000Y-95125000D03*
%TD*%
%TO.P,D63,1,K*%
%TO.N,row4*%
X193198750Y-155575000D03*
%TO.P,D63,2,A*%
%TO.N,Net-(D63-A)*%
X193198750Y-152275000D03*
%TD*%
D18*
%TO.P,J1,1,MISO*%
%TO.N,MISO*%
X182747225Y-152364145D03*
%TO.P,J1,2,VCC*%
%TO.N,+5V*%
X185287225Y-152364145D03*
%TO.P,J1,3,SCK*%
%TO.N,SCK*%
X182747225Y-149824145D03*
%TO.P,J1,4,MOSI*%
%TO.N,MOSI*%
X185287225Y-149824145D03*
%TO.P,J1,5,~{RST}*%
%TO.N,RESET*%
X182747225Y-147284145D03*
D19*
%TO.P,J1,6,GND*%
%TO.N,GND*%
X185287225Y-147284145D03*
%TD*%
D11*
%TO.P,D64,1,K*%
%TO.N,row4*%
X262255000Y-155575000D03*
%TO.P,D64,2,A*%
%TO.N,Net-(D64-A)*%
X262255000Y-152275000D03*
%TD*%
%TO.P,D40,1,K*%
%TO.N,row2*%
X238442500Y-117475000D03*
%TO.P,D40,2,A*%
%TO.N,Net-(D40-A)*%
X238442500Y-114175000D03*
%TD*%
%TO.P,D13,1,K*%
%TO.N,row0*%
X281305000Y-79375000D03*
%TO.P,D13,2,A*%
%TO.N,Net-(D13-A)*%
X281305000Y-76075000D03*
%TD*%
%TO.P,D58,1,K*%
%TO.N,row3*%
X338455000Y-136525000D03*
%TO.P,D58,2,A*%
%TO.N,Net-(D58-A)*%
X338455000Y-133225000D03*
%TD*%
%TO.P,D60,1,K*%
%TO.N,row4*%
X74136250Y-155575000D03*
%TO.P,D60,2,A*%
%TO.N,Net-(D60-A)*%
X74136250Y-152275000D03*
%TD*%
%TO.P,D61,1,K*%
%TO.N,row4*%
X97948750Y-155575000D03*
%TO.P,D61,2,A*%
%TO.N,Net-(D61-A)*%
X97948750Y-152275000D03*
%TD*%
%TO.P,D18,1,K*%
%TO.N,row1*%
X100330000Y-98425000D03*
%TO.P,D18,2,A*%
%TO.N,Net-(D18-A)*%
X100330000Y-95125000D03*
%TD*%
D13*
%TO.P,C5,1*%
%TO.N,+5V*%
X213592500Y-140712500D03*
%TO.P,C5,2*%
%TO.N,GND*%
X211517500Y-140712500D03*
%TD*%
D20*
%TO.P,C4,1*%
%TO.N,+5V*%
X224514500Y-156718000D03*
%TO.P,C4,2*%
%TO.N,GND*%
X226589500Y-156718000D03*
%TD*%
D11*
%TO.P,D39,1,K*%
%TO.N,row2*%
X219392500Y-117475000D03*
%TO.P,D39,2,A*%
%TO.N,Net-(D39-A)*%
X219392500Y-114175000D03*
%TD*%
%TO.P,D11,1,K*%
%TO.N,row0*%
X243205000Y-79375000D03*
%TO.P,D11,2,A*%
%TO.N,Net-(D11-A)*%
X243205000Y-76075000D03*
%TD*%
D21*
%TO.P,C3,1*%
%TO.N,+5V*%
X209092500Y-154287500D03*
%TO.P,C3,2*%
%TO.N,GND*%
X209092500Y-152212500D03*
%TD*%
D11*
%TO.P,D54,1,K*%
%TO.N,row3*%
X247967500Y-136525000D03*
%TO.P,D54,2,A*%
%TO.N,Net-(D54-A)*%
X247967500Y-133225000D03*
%TD*%
%TO.P,D14,1,K*%
%TO.N,row0*%
X300355000Y-79375000D03*
%TO.P,D14,2,A*%
%TO.N,Net-(D14-A)*%
X300355000Y-76075000D03*
%TD*%
%TO.P,D51,1,K*%
%TO.N,row3*%
X190817500Y-136525000D03*
%TO.P,D51,2,A*%
%TO.N,Net-(D51-A)*%
X190817500Y-133225000D03*
%TD*%
%TO.P,D48,1,K*%
%TO.N,row3*%
X133667500Y-136525000D03*
%TO.P,D48,2,A*%
%TO.N,Net-(D48-A)*%
X133667500Y-133225000D03*
%TD*%
%TO.P,D66,1,K*%
%TO.N,row4*%
X300355000Y-155575000D03*
%TO.P,D66,2,A*%
%TO.N,Net-(D66-A)*%
X300355000Y-152275000D03*
%TD*%
%TO.P,D19,1,K*%
%TO.N,row1*%
X119380000Y-98425000D03*
%TO.P,D19,2,A*%
%TO.N,Net-(D19-A)*%
X119380000Y-95125000D03*
%TD*%
%TO.P,D20,1,K*%
%TO.N,row1*%
X138430000Y-98425000D03*
%TO.P,D20,2,A*%
%TO.N,Net-(D20-A)*%
X138430000Y-95125000D03*
%TD*%
%TO.P,D65,1,K*%
%TO.N,row4*%
X281305000Y-155575000D03*
%TO.P,D65,2,A*%
%TO.N,Net-(D65-A)*%
X281305000Y-152275000D03*
%TD*%
%TO.P,D32,1,K*%
%TO.N,row2*%
X78898750Y-117475000D03*
%TO.P,D32,2,A*%
%TO.N,Net-(D32-A)*%
X78898750Y-114175000D03*
%TD*%
%TO.P,D7,1,K*%
%TO.N,row0*%
X167005000Y-79375000D03*
%TO.P,D7,2,A*%
%TO.N,Net-(D7-A)*%
X167005000Y-76075000D03*
%TD*%
%TO.P,D15,1,K*%
%TO.N,row0*%
X328930000Y-79375000D03*
%TO.P,D15,2,A*%
%TO.N,Net-(D15-A)*%
X328930000Y-76075000D03*
%TD*%
D22*
%TO.P,U1,1,PE6*%
%TO.N,unconnected-(U1-PE6-Pad1)*%
X215586250Y-143312500D03*
%TO.P,U1,2,UVCC*%
%TO.N,+5V*%
X216386250Y-143312500D03*
%TO.P,U1,3,D-*%
%TO.N,D-*%
X217186250Y-143312500D03*
%TO.P,U1,4,D+*%
%TO.N,D+*%
X217986250Y-143312500D03*
%TO.P,U1,5,UGND*%
%TO.N,GND*%
X218786250Y-143312500D03*
%TO.P,U1,6,UCAP*%
%TO.N,Net-(U1-UCAP)*%
X219586250Y-143312500D03*
%TO.P,U1,7,VBUS*%
%TO.N,+5V*%
X220386250Y-143312500D03*
%TO.P,U1,8,PB0*%
%TO.N,MOSI*%
X221186250Y-143312500D03*
%TO.P,U1,9,PB1*%
%TO.N,SCK*%
X221986250Y-143312500D03*
%TO.P,U1,10,PB2*%
%TO.N,MISO*%
X222786250Y-143312500D03*
%TO.P,U1,11,PB3*%
%TO.N,col7*%
X223586250Y-143312500D03*
D23*
%TO.P,U1,12,PB7*%
%TO.N,unconnected-(U1-PB7-Pad12)*%
X225286250Y-145012500D03*
%TO.P,U1,13,~{RESET}*%
%TO.N,RESET*%
X225286250Y-145812500D03*
%TO.P,U1,14,VCC*%
%TO.N,+5V*%
X225286250Y-146612500D03*
%TO.P,U1,15,GND*%
%TO.N,GND*%
X225286250Y-147412500D03*
%TO.P,U1,16,XTAL2*%
%TO.N,XTAL2*%
X225286250Y-148212500D03*
%TO.P,U1,17,XTAL1*%
%TO.N,XTAL1*%
X225286250Y-149012500D03*
%TO.P,U1,18,PD0*%
%TO.N,unconnected-(U1-PD0-Pad18)*%
X225286250Y-149812500D03*
%TO.P,U1,19,PD1*%
%TO.N,col8*%
X225286250Y-150612500D03*
%TO.P,U1,20,PD2*%
%TO.N,col9*%
X225286250Y-151412500D03*
%TO.P,U1,21,PD3*%
%TO.N,col10*%
X225286250Y-152212500D03*
%TO.P,U1,22,PD5*%
%TO.N,col11*%
X225286250Y-153012500D03*
D22*
%TO.P,U1,23,GND*%
%TO.N,GND*%
X223586250Y-154712500D03*
%TO.P,U1,24,AVCC*%
%TO.N,+5V*%
X222786250Y-154712500D03*
%TO.P,U1,25,PD4*%
%TO.N,col12*%
X221986250Y-154712500D03*
%TO.P,U1,26,PD6*%
%TO.N,col13*%
X221186250Y-154712500D03*
%TO.P,U1,27,PD7*%
%TO.N,col14*%
X220386250Y-154712500D03*
%TO.P,U1,28,PB4*%
%TO.N,col0*%
X219586250Y-154712500D03*
%TO.P,U1,29,PB5*%
%TO.N,col1*%
X218786250Y-154712500D03*
%TO.P,U1,30,PB6*%
%TO.N,col2*%
X217986250Y-154712500D03*
%TO.P,U1,31,PC6*%
%TO.N,col3*%
X217186250Y-154712500D03*
%TO.P,U1,32,PC7*%
%TO.N,col4*%
X216386250Y-154712500D03*
%TO.P,U1,33,~{HWB}/PE2*%
%TO.N,Net-(U1-~{HWB}{slash}PE2)*%
X215586250Y-154712500D03*
D23*
%TO.P,U1,34,VCC*%
%TO.N,+5V*%
X213886250Y-153012500D03*
%TO.P,U1,35,GND*%
%TO.N,GND*%
X213886250Y-152212500D03*
%TO.P,U1,36,PF7*%
%TO.N,row4*%
X213886250Y-151412500D03*
%TO.P,U1,37,PF6*%
%TO.N,col5*%
X213886250Y-150612500D03*
%TO.P,U1,38,PF5*%
%TO.N,col6*%
X213886250Y-149812500D03*
%TO.P,U1,39,PF4*%
%TO.N,row0*%
X213886250Y-149012500D03*
%TO.P,U1,40,PF1*%
%TO.N,row1*%
X213886250Y-148212500D03*
%TO.P,U1,41,PF0*%
%TO.N,row2*%
X213886250Y-147412500D03*
%TO.P,U1,42,AREF*%
%TO.N,row3*%
X213886250Y-146612500D03*
%TO.P,U1,43,GND*%
%TO.N,GND*%
X213886250Y-145812500D03*
%TO.P,U1,44,AVCC*%
%TO.N,+5V*%
X213886250Y-145012500D03*
%TD*%
D11*
%TO.P,D12,1,K*%
%TO.N,row0*%
X262255000Y-79375000D03*
%TO.P,D12,2,A*%
%TO.N,Net-(D12-A)*%
X262255000Y-76075000D03*
%TD*%
%TO.P,D8,1,K*%
%TO.N,row0*%
X186055000Y-79375000D03*
%TO.P,D8,2,A*%
%TO.N,Net-(D8-A)*%
X186055000Y-76075000D03*
%TD*%
%TO.P,D17,1,K*%
%TO.N,row1*%
X76517500Y-98425000D03*
%TO.P,D17,2,A*%
%TO.N,Net-(D17-A)*%
X76517500Y-95125000D03*
%TD*%
%TO.P,D27,1,K*%
%TO.N,row1*%
X271780000Y-98425000D03*
%TO.P,D27,2,A*%
%TO.N,Net-(D27-A)*%
X271780000Y-95125000D03*
%TD*%
%TO.P,D37,1,K*%
%TO.N,row2*%
X181292500Y-117475000D03*
%TO.P,D37,2,A*%
%TO.N,Net-(D37-A)*%
X181292500Y-114175000D03*
%TD*%
%TO.P,D26,1,K*%
%TO.N,row1*%
X252730000Y-98425000D03*
%TO.P,D26,2,A*%
%TO.N,Net-(D26-A)*%
X252730000Y-95125000D03*
%TD*%
%TO.P,D59,1,K*%
%TO.N,row3*%
X357505000Y-136525000D03*
%TO.P,D59,2,A*%
%TO.N,Net-(D59-A)*%
X357505000Y-133225000D03*
%TD*%
D12*
%TO.P,R1,1*%
%TO.N,Net-(U1-~{HWB}{slash}PE2)*%
X213709000Y-157099000D03*
%TO.P,R1,2*%
%TO.N,GND*%
X211709000Y-157099000D03*
%TD*%
D11*
%TO.P,D2,1,K*%
%TO.N,row0*%
X71755000Y-79375000D03*
%TO.P,D2,2,A*%
%TO.N,Net-(D2-A)*%
X71755000Y-76075000D03*
%TD*%
%TO.P,D9,1,K*%
%TO.N,row0*%
X205105000Y-79375000D03*
%TO.P,D9,2,A*%
%TO.N,Net-(D9-A)*%
X205105000Y-76075000D03*
%TD*%
%TO.P,D21,1,K*%
%TO.N,row1*%
X157480000Y-98425000D03*
%TO.P,D21,2,A*%
%TO.N,Net-(D21-A)*%
X157480000Y-95125000D03*
%TD*%
%TO.P,D53,1,K*%
%TO.N,row3*%
X228917500Y-136525000D03*
%TO.P,D53,2,A*%
%TO.N,Net-(D53-A)*%
X228917500Y-133225000D03*
%TD*%
D13*
%TO.P,C1,1*%
%TO.N,Net-(U1-UCAP)*%
X221382500Y-139573000D03*
%TO.P,C1,2*%
%TO.N,GND*%
X219307500Y-139573000D03*
%TD*%
D11*
%TO.P,D25,1,K*%
%TO.N,row1*%
X233680000Y-98425000D03*
%TO.P,D25,2,A*%
%TO.N,Net-(D25-A)*%
X233680000Y-95125000D03*
%TD*%
%TO.P,D50,1,K*%
%TO.N,row3*%
X171767500Y-136525000D03*
%TO.P,D50,2,A*%
%TO.N,Net-(D50-A)*%
X171767500Y-133225000D03*
%TD*%
D24*
%TO.P,Y1,1,1*%
%TO.N,XTAL1*%
X229659000Y-150550200D03*
%TO.P,Y1,2,2*%
%TO.N,GND*%
X229659000Y-147650200D03*
%TO.P,Y1,3,3*%
%TO.N,XTAL2*%
X231959000Y-147650200D03*
%TO.P,Y1,4,4*%
%TO.N,GND*%
X231959000Y-150550200D03*
%TD*%
D11*
%TO.P,D4,1,K*%
%TO.N,row0*%
X109855000Y-79375000D03*
%TO.P,D4,2,A*%
%TO.N,Net-(D4-A)*%
X109855000Y-76075000D03*
%TD*%
D25*
%TO.N,GND*%
X234739000Y-145745200D03*
X215011000Y-139700000D03*
X244221000Y-143383000D03*
X237617000Y-150241000D03*
X206827500Y-152212500D03*
X237617000Y-147904200D03*
X217505714Y-139681786D03*
X227965000Y-148082000D03*
%TO.N,+5V*%
X222758000Y-138557000D03*
X207518000Y-138557000D03*
X213614000Y-138557000D03*
X224514500Y-157988000D03*
X228981000Y-139446000D03*
X207518000Y-154305000D03*
%TO.N,row0*%
X217285485Y-79998485D03*
X226949000Y-80010000D03*
%TO.N,row1*%
X208534000Y-99060000D03*
X219202000Y-99060000D03*
X211201000Y-99060000D03*
X226441000Y-99060000D03*
X216154000Y-99060000D03*
X228600000Y-99060000D03*
%TO.N,row2*%
X214249000Y-118110000D03*
X205613000Y-118110000D03*
X217297000Y-118110000D03*
X226949000Y-118110000D03*
X229235000Y-118110000D03*
X202311000Y-118110000D03*
%TO.N,row3*%
X202693000Y-137160000D03*
X204470000Y-137160000D03*
X213614000Y-137160000D03*
X222758000Y-137160000D03*
%TO.N,SCK*%
X208275480Y-139926882D03*
X180340000Y-141986000D03*
X223435091Y-140089418D03*
%TO.N,MISO*%
X179539997Y-141986000D03*
X222123000Y-137866500D03*
X204460225Y-139195133D03*
%TO.N,RESET*%
X230251000Y-141605000D03*
X181140003Y-141986000D03*
X208280062Y-140726872D03*
X226115500Y-141533500D03*
X228841500Y-141605000D03*
%TO.N,MOSI*%
X208279963Y-141526874D03*
X187579000Y-148590000D03*
X221742000Y-141986000D03*
X181940006Y-141986000D03*
%TO.N,col0*%
X210439000Y-159930250D03*
%TO.N,col1*%
X209532609Y-159823862D03*
%TO.N,col2*%
X208788000Y-159529250D03*
%TO.N,col3*%
X208007873Y-159128250D03*
%TO.N,col4*%
X207332453Y-158699516D03*
%TO.N,col5*%
X203393235Y-144805765D03*
%TO.N,col7*%
X233807000Y-137922000D03*
%TO.N,col8*%
X232627630Y-157301775D03*
%TO.N,col9*%
X231902000Y-157901775D03*
%TO.N,col10*%
X231036114Y-158528250D03*
%TO.N,col11*%
X230251000Y-159128250D03*
%TO.N,col12*%
X229554019Y-159529250D03*
%TO.N,col13*%
X228756536Y-159814169D03*
%TO.N,col14*%
X227965000Y-159930250D03*
%TD*%
D26*
%TO.N,GND*%
X229364250Y-145090950D02*
X229532000Y-145258700D01*
X215027750Y-152223000D02*
X215017250Y-152212500D01*
X228389000Y-147650200D02*
X227881000Y-148158200D01*
X223586250Y-153243500D02*
X223586250Y-154712500D01*
X225578500Y-154712500D02*
X223586250Y-154712500D01*
X229659000Y-147650200D02*
X228389000Y-147650200D01*
X218821000Y-141986000D02*
X218821000Y-143277750D01*
X231326600Y-146126200D02*
X233215000Y-146126200D01*
X226602500Y-147412500D02*
X228756300Y-145258700D01*
X231959000Y-150404800D02*
X233291200Y-149072600D01*
X222805250Y-145812500D02*
X224405250Y-147412500D01*
X221445086Y-65810000D02*
X223523500Y-67888414D01*
X235036000Y-149072600D02*
X235036000Y-149083350D01*
X227584000Y-100711000D02*
X229574094Y-102701094D01*
X215027750Y-153679000D02*
X215027750Y-152223000D01*
X218786250Y-143312500D02*
X218786250Y-148443500D01*
X234739000Y-146761200D02*
X235094600Y-146761200D01*
X235094600Y-146761200D02*
X236237600Y-147904200D01*
X233850000Y-146761200D02*
X234739000Y-146761200D01*
X213886250Y-145812500D02*
X222805250Y-145812500D01*
X231959000Y-150204200D02*
X231959000Y-150550200D01*
X229574094Y-102701094D02*
X229574094Y-110194094D01*
X219329000Y-141478000D02*
X218821000Y-141986000D01*
X224405250Y-147412500D02*
X225286250Y-147412500D01*
X226589500Y-155723500D02*
X225578500Y-154712500D01*
X218796214Y-139681786D02*
X218905000Y-139573000D01*
X230459100Y-145258700D02*
X231326600Y-146126200D01*
X219307500Y-137054500D02*
X219307500Y-139573000D01*
X219307500Y-139573000D02*
X219329000Y-139594500D01*
X231959000Y-150550200D02*
X231959000Y-150404800D01*
X244221000Y-145998000D02*
X244221000Y-152198000D01*
X235036000Y-149083350D02*
X236244450Y-150291800D01*
X233291200Y-149072600D02*
X235036000Y-149072600D01*
X220821000Y-65810000D02*
X218754000Y-65810000D01*
X228092000Y-111676188D02*
X228092000Y-128270000D01*
X216946000Y-67618000D02*
X216946000Y-70110000D01*
X219329000Y-139594500D02*
X219329000Y-141478000D01*
X236237600Y-147904200D02*
X237617000Y-147904200D01*
X225933000Y-79121000D02*
X225933000Y-90403688D01*
X228092000Y-128270000D02*
X219307500Y-137054500D01*
X220821000Y-65810000D02*
X221445086Y-65810000D01*
X217454000Y-64510000D02*
X216946000Y-64510000D01*
X212654500Y-137865500D02*
X211517500Y-139002500D01*
X229532000Y-145258700D02*
X230459100Y-145258700D01*
X223520000Y-76708000D02*
X225933000Y-79121000D01*
X218821000Y-143277750D02*
X218786250Y-143312500D01*
X229659000Y-147904200D02*
X231959000Y-150204200D01*
X213900429Y-137865500D02*
X212654500Y-137865500D01*
X236244450Y-150291800D02*
X236255200Y-150291800D01*
X218754000Y-65810000D02*
X217454000Y-64510000D01*
X227584000Y-92054688D02*
X227584000Y-100711000D01*
X218905000Y-139573000D02*
X219307500Y-139573000D01*
X234739000Y-146761200D02*
X234739000Y-145745200D01*
X217505714Y-139681786D02*
X218796214Y-139681786D01*
X225286250Y-147412500D02*
X226602500Y-147412500D01*
X218754000Y-65810000D02*
X216946000Y-67618000D01*
X229574094Y-110194094D02*
X228092000Y-111676188D01*
X235036000Y-149072600D02*
X236255200Y-147853400D01*
X209092500Y-152212500D02*
X213886250Y-152212500D01*
X229659000Y-147650200D02*
X229659000Y-147904200D01*
X215011000Y-138976071D02*
X213900429Y-137865500D01*
X237617000Y-150241000D02*
X236263000Y-150241000D01*
X226589500Y-156718000D02*
X226589500Y-155723500D01*
X223523500Y-67888414D02*
X223523500Y-76704500D01*
X206827500Y-152212500D02*
X209092500Y-152212500D01*
X211709000Y-157099000D02*
X211709000Y-156997750D01*
X225933000Y-90403688D02*
X227584000Y-92054688D01*
X218786250Y-148443500D02*
X215017250Y-152212500D01*
X215011000Y-139700000D02*
X215011000Y-138976071D01*
X223523500Y-76704500D02*
X223520000Y-76708000D01*
X211517500Y-139002500D02*
X211517500Y-140712500D01*
X228756300Y-145258700D02*
X229532000Y-145258700D01*
X218786250Y-148443500D02*
X223586250Y-153243500D01*
X211709000Y-156997750D02*
X215027750Y-153679000D01*
X215017250Y-152212500D02*
X213886250Y-152212500D01*
X244221000Y-143383000D02*
X244221000Y-145998000D01*
X233215000Y-146126200D02*
X233850000Y-146761200D01*
D27*
%TO.N,Net-(U1-UCAP)*%
X221361000Y-140462000D02*
X219586250Y-142236750D01*
X221382500Y-139573000D02*
X221361000Y-139594500D01*
X219586250Y-142236750D02*
X219586250Y-143312500D01*
X221361000Y-139594500D02*
X221361000Y-140462000D01*
D26*
%TO.N,+5V*%
X213592500Y-140712500D02*
X213886250Y-141006250D01*
X228981000Y-139446000D02*
X229532000Y-139997000D01*
X241470000Y-139997000D02*
X242554000Y-141081000D01*
X225286250Y-146612500D02*
X226167250Y-146612500D01*
X218059000Y-80391000D02*
X209677000Y-88773000D01*
X203383500Y-137216500D02*
X204724000Y-138557000D01*
X221591000Y-68810000D02*
X222123000Y-69342000D01*
X207518000Y-154305000D02*
X209075000Y-154305000D01*
X209677000Y-88773000D02*
X209677000Y-101854000D01*
X209075000Y-154305000D02*
X209092500Y-154287500D01*
X222786250Y-155593500D02*
X222786250Y-154712500D01*
X203383500Y-110052500D02*
X203383500Y-137216500D01*
X218059000Y-75311000D02*
X218059000Y-80391000D01*
X229532000Y-143247750D02*
X229532000Y-143183700D01*
X222123000Y-71247000D02*
X218059000Y-75311000D01*
X224514500Y-156718000D02*
X223910750Y-156718000D01*
X229532000Y-139997000D02*
X241470000Y-139997000D01*
X226167250Y-146612500D02*
X229532000Y-143247750D01*
X209677000Y-101854000D02*
X204216000Y-107315000D01*
X212611250Y-154287500D02*
X213886250Y-153012500D01*
X204216000Y-109220000D02*
X203383500Y-110052500D01*
X220821000Y-68810000D02*
X221591000Y-68810000D01*
X213614000Y-140691000D02*
X213592500Y-140712500D01*
X204724000Y-138557000D02*
X207518000Y-138557000D01*
X222123000Y-69342000D02*
X222123000Y-71247000D01*
X213592500Y-140712500D02*
X214790250Y-140712500D01*
X204216000Y-107315000D02*
X204216000Y-109220000D01*
X213886250Y-143147250D02*
X213886250Y-145012500D01*
X220386250Y-142325750D02*
X220386250Y-143312500D01*
X213614000Y-138557000D02*
X213614000Y-140691000D01*
X222758000Y-138557000D02*
X222758000Y-139954000D01*
X209092500Y-154287500D02*
X212611250Y-154287500D01*
X223910750Y-156718000D02*
X222786250Y-155593500D01*
X242554000Y-141081000D02*
X242554000Y-142494000D01*
X214790250Y-140712500D02*
X216386250Y-142308500D01*
X222758000Y-139954000D02*
X220386250Y-142325750D01*
X229532000Y-139997000D02*
X229532000Y-143183700D01*
X213592500Y-142853500D02*
X213886250Y-143147250D01*
X224514500Y-157988000D02*
X224514500Y-156718000D01*
X216386250Y-142308500D02*
X216386250Y-143312500D01*
X213592500Y-140712500D02*
X213592500Y-142853500D01*
D27*
%TO.N,XTAL1*%
X230582600Y-151901200D02*
X233383600Y-151901200D01*
X229659000Y-150550200D02*
X229659000Y-150977600D01*
X225286250Y-149012500D02*
X228121300Y-149012500D01*
X233383600Y-151901200D02*
X234188000Y-151096800D01*
X228121300Y-149012500D02*
X229659000Y-150550200D01*
X229659000Y-150977600D02*
X230582600Y-151901200D01*
X234188000Y-151096800D02*
X234188000Y-150241000D01*
%TO.N,row0*%
X110490000Y-80010000D02*
X128270000Y-80010000D01*
X147955000Y-79375000D02*
X148590000Y-80010000D01*
X235426250Y-80010000D02*
X236061250Y-79375000D01*
X109855000Y-79375000D02*
X110490000Y-80010000D01*
X322084961Y-78935100D02*
X324027539Y-78935100D01*
X109220000Y-80010000D02*
X109855000Y-79375000D01*
X344822561Y-80010000D02*
X345897461Y-78935100D01*
X147320000Y-80010000D02*
X147955000Y-79375000D01*
X236696250Y-80010000D02*
X242570000Y-80010000D01*
X299720000Y-80010000D02*
X300355000Y-79375000D01*
X146656000Y-142719000D02*
X148463000Y-144526000D01*
X281305000Y-79375000D02*
X281940000Y-80010000D01*
X201180581Y-142719000D02*
X202723513Y-142719000D01*
X72390000Y-80010000D02*
X90170000Y-80010000D01*
X66482250Y-142240000D02*
X66961250Y-142719000D01*
X242570000Y-80010000D02*
X243205000Y-79375000D01*
X128270000Y-80010000D02*
X128905000Y-79375000D01*
X243205000Y-79375000D02*
X243840000Y-80010000D01*
X356870000Y-80010000D02*
X357505000Y-79375000D01*
X90170000Y-80010000D02*
X90805000Y-79375000D01*
X347840039Y-78935100D02*
X348914939Y-80010000D01*
X167005000Y-79375000D02*
X167640000Y-80010000D01*
X186055000Y-79375000D02*
X186690000Y-80010000D01*
X71120000Y-80010000D02*
X67056000Y-80010000D01*
X202723513Y-142719000D02*
X209017013Y-149012500D01*
X185420000Y-80010000D02*
X186055000Y-79375000D01*
X67056000Y-80010000D02*
X66482250Y-80583750D01*
X90805000Y-79375000D02*
X91440000Y-80010000D01*
X205740000Y-80010000D02*
X205105000Y-79375000D01*
X262255000Y-79375000D02*
X262890000Y-80010000D01*
X128905000Y-79375000D02*
X129540000Y-80010000D01*
X71755000Y-79375000D02*
X71120000Y-80010000D01*
X148590000Y-80010000D02*
X166370000Y-80010000D01*
X348914939Y-80010000D02*
X356870000Y-80010000D01*
X66482250Y-80583750D02*
X66482250Y-142240000D01*
X243840000Y-80010000D02*
X261620000Y-80010000D01*
X217273970Y-80010000D02*
X205740000Y-80010000D01*
X321010061Y-80010000D02*
X322084961Y-78935100D01*
X167640000Y-80010000D02*
X185420000Y-80010000D01*
X329565000Y-80010000D02*
X344822561Y-80010000D01*
X300990000Y-80010000D02*
X321010061Y-80010000D01*
X91440000Y-80010000D02*
X109220000Y-80010000D01*
X325102439Y-80010000D02*
X328295000Y-80010000D01*
X186690000Y-80010000D02*
X204470000Y-80010000D01*
X129540000Y-80010000D02*
X147320000Y-80010000D01*
X324027539Y-78935100D02*
X325102439Y-80010000D01*
X280670000Y-80010000D02*
X281305000Y-79375000D01*
X204470000Y-80010000D02*
X205105000Y-79375000D01*
X328295000Y-80010000D02*
X328930000Y-79375000D01*
X300355000Y-79375000D02*
X300990000Y-80010000D01*
X209017013Y-149012500D02*
X213886250Y-149012500D01*
X262890000Y-80010000D02*
X280670000Y-80010000D01*
X199373581Y-144526000D02*
X201180581Y-142719000D01*
X236061250Y-79375000D02*
X236696250Y-80010000D01*
X261620000Y-80010000D02*
X262255000Y-79375000D01*
X217285485Y-79998485D02*
X217273970Y-80010000D01*
X166370000Y-80010000D02*
X167005000Y-79375000D01*
X226949000Y-80010000D02*
X235426250Y-80010000D01*
X281940000Y-80010000D02*
X299720000Y-80010000D01*
X148463000Y-144526000D02*
X199373581Y-144526000D01*
X71755000Y-79375000D02*
X72390000Y-80010000D01*
X66961250Y-142719000D02*
X146656000Y-142719000D01*
X328930000Y-79375000D02*
X329565000Y-80010000D01*
X345897461Y-78935100D02*
X347840039Y-78935100D01*
%TO.N,Net-(D2-A)*%
X72642000Y-76075000D02*
X71755000Y-76075000D01*
X73977500Y-70485000D02*
X74422000Y-70929500D01*
X74422000Y-74295000D02*
X72642000Y-76075000D01*
X74422000Y-70929500D02*
X74422000Y-74295000D01*
%TO.N,Net-(D3-A)*%
X93472000Y-70929500D02*
X93472000Y-74041000D01*
X93027500Y-70485000D02*
X93472000Y-70929500D01*
X93472000Y-74041000D02*
X91438000Y-76075000D01*
X91438000Y-76075000D02*
X90805000Y-76075000D01*
%TO.N,Net-(D4-A)*%
X112077500Y-70485000D02*
X112522000Y-70929500D01*
X112522000Y-70929500D02*
X112522000Y-73914000D01*
X110361000Y-76075000D02*
X109855000Y-76075000D01*
X112522000Y-73914000D02*
X110361000Y-76075000D01*
%TO.N,Net-(D5-A)*%
X131572000Y-73914000D02*
X129411000Y-76075000D01*
X131572000Y-70929500D02*
X131572000Y-73914000D01*
X129411000Y-76075000D02*
X128905000Y-76075000D01*
X131127500Y-70485000D02*
X131572000Y-70929500D01*
%TO.N,Net-(D6-A)*%
X150622000Y-73787000D02*
X148334000Y-76075000D01*
X148334000Y-76075000D02*
X147955000Y-76075000D01*
X150177500Y-70485000D02*
X150622000Y-70929500D01*
X150622000Y-70929500D02*
X150622000Y-73787000D01*
%TO.N,Net-(D7-A)*%
X169672000Y-70929500D02*
X169672000Y-73661000D01*
X167258000Y-76075000D02*
X167005000Y-76075000D01*
X169672000Y-73661000D02*
X167258000Y-76075000D01*
X169227500Y-70485000D02*
X169672000Y-70929500D01*
%TO.N,Net-(D8-A)*%
X188722000Y-73660000D02*
X186307000Y-76075000D01*
X186307000Y-76075000D02*
X186055000Y-76075000D01*
X188277500Y-70485000D02*
X188722000Y-70929500D01*
X188722000Y-70929500D02*
X188722000Y-73660000D01*
%TO.N,Net-(D9-A)*%
X207899000Y-73660000D02*
X205484000Y-76075000D01*
X207327500Y-70485000D02*
X207899000Y-71056500D01*
X207899000Y-71056500D02*
X207899000Y-73660000D01*
X205484000Y-76075000D02*
X205105000Y-76075000D01*
%TO.N,Net-(D10-A)*%
X226377500Y-70485000D02*
X226822000Y-70929500D01*
X228983000Y-76075000D02*
X236061250Y-76075000D01*
X226822000Y-70929500D02*
X226822000Y-73914000D01*
X226822000Y-73914000D02*
X228983000Y-76075000D01*
%TO.N,Net-(D11-A)*%
X245872000Y-73408000D02*
X243205000Y-76075000D01*
X245872000Y-70929500D02*
X245872000Y-73408000D01*
X245427500Y-70485000D02*
X245872000Y-70929500D01*
%TO.N,Net-(D12-A)*%
X265049000Y-71056500D02*
X265049000Y-73281000D01*
X265049000Y-73281000D02*
X262255000Y-76075000D01*
X264477500Y-70485000D02*
X265049000Y-71056500D01*
%TO.N,Net-(D13-A)*%
X283972000Y-70929500D02*
X283972000Y-73408000D01*
X283972000Y-73408000D02*
X281305000Y-76075000D01*
X283527500Y-70485000D02*
X283972000Y-70929500D01*
%TO.N,Net-(D14-A)*%
X303149000Y-73281000D02*
X300355000Y-76075000D01*
X303149000Y-71056500D02*
X303149000Y-73281000D01*
X302577500Y-70485000D02*
X303149000Y-71056500D01*
%TO.N,Net-(D15-A)*%
X331152500Y-70485000D02*
X331724000Y-71056500D01*
X331724000Y-71056500D02*
X331724000Y-73281000D01*
X331724000Y-73281000D02*
X328930000Y-76075000D01*
%TO.N,Net-(D16-A)*%
X360172000Y-70929500D02*
X360172000Y-73408000D01*
X359727500Y-70485000D02*
X360172000Y-70929500D01*
X360172000Y-73408000D02*
X357505000Y-76075000D01*
%TO.N,Net-(D17-A)*%
X78740000Y-89535000D02*
X79248000Y-90043000D01*
X77087000Y-95125000D02*
X76517500Y-95125000D01*
X79248000Y-90043000D02*
X79248000Y-92964000D01*
X79248000Y-92964000D02*
X77087000Y-95125000D01*
%TO.N,row1*%
X175895000Y-99060000D02*
X158115000Y-99060000D01*
X233045000Y-99060000D02*
X233680000Y-98425000D01*
X139065000Y-99060000D02*
X138430000Y-98425000D01*
X76517500Y-98425000D02*
X75882500Y-99060000D01*
X67183000Y-99060000D02*
X66883250Y-99359750D01*
X100965000Y-99060000D02*
X100330000Y-98425000D01*
X253365000Y-99060000D02*
X252730000Y-98425000D01*
X290830000Y-98425000D02*
X290195000Y-99060000D01*
X177165000Y-99060000D02*
X176530000Y-98425000D01*
X271145000Y-99060000D02*
X253365000Y-99060000D01*
X75882500Y-99060000D02*
X67183000Y-99060000D01*
X176530000Y-98425000D02*
X175895000Y-99060000D01*
X137795000Y-99060000D02*
X120015000Y-99060000D01*
X158115000Y-99060000D02*
X157480000Y-98425000D01*
X357505000Y-98425000D02*
X356870000Y-99060000D01*
X119380000Y-98425000D02*
X118745000Y-99060000D01*
X194945000Y-99060000D02*
X177165000Y-99060000D01*
X196215000Y-99060000D02*
X195580000Y-98425000D01*
X199618481Y-143714000D02*
X201014481Y-142318000D01*
X310515000Y-99060000D02*
X309880000Y-98425000D01*
X148414200Y-140121000D02*
X150162800Y-140121000D01*
X201014481Y-142318000D02*
X202889613Y-142318000D01*
X228600000Y-99060000D02*
X233045000Y-99060000D01*
X215265000Y-99060000D02*
X214630000Y-98425000D01*
X219202000Y-99060000D02*
X226441000Y-99060000D01*
X216154000Y-99060000D02*
X215265000Y-99060000D01*
X100330000Y-98425000D02*
X99695000Y-99060000D01*
X99695000Y-99060000D02*
X77152500Y-99060000D01*
X334327500Y-99060000D02*
X333692500Y-98425000D01*
X153755800Y-143714000D02*
X199618481Y-143714000D01*
X118745000Y-99060000D02*
X100965000Y-99060000D01*
X195580000Y-98425000D02*
X194945000Y-99060000D01*
X333057500Y-99060000D02*
X310515000Y-99060000D01*
X291465000Y-99060000D02*
X290830000Y-98425000D01*
X66883250Y-99359750D02*
X66883250Y-142067250D01*
X146217200Y-142318000D02*
X148414200Y-140121000D01*
X290195000Y-99060000D02*
X272415000Y-99060000D01*
X67134000Y-142318000D02*
X146217200Y-142318000D01*
X214630000Y-98425000D02*
X215265000Y-98425000D01*
X157480000Y-98425000D02*
X156845000Y-99060000D01*
X234315000Y-99060000D02*
X233680000Y-98425000D01*
X272415000Y-99060000D02*
X271780000Y-98425000D01*
X208534000Y-99060000D02*
X196215000Y-99060000D01*
X271780000Y-98425000D02*
X271145000Y-99060000D01*
X252730000Y-98425000D02*
X252095000Y-99060000D01*
X252095000Y-99060000D02*
X234315000Y-99060000D01*
X66883250Y-142067250D02*
X67134000Y-142318000D01*
X211201000Y-99060000D02*
X213995000Y-99060000D01*
X333692500Y-98425000D02*
X333057500Y-99060000D01*
X213995000Y-99060000D02*
X214630000Y-98425000D01*
X77152500Y-99060000D02*
X76517500Y-98425000D01*
X202889613Y-142318000D02*
X208784113Y-148212500D01*
X309880000Y-98425000D02*
X309245000Y-99060000D01*
X150162800Y-140121000D02*
X153755800Y-143714000D01*
X208784113Y-148212500D02*
X213886250Y-148212500D01*
X156845000Y-99060000D02*
X139065000Y-99060000D01*
X138430000Y-98425000D02*
X137795000Y-99060000D01*
X120015000Y-99060000D02*
X119380000Y-98425000D01*
X309245000Y-99060000D02*
X291465000Y-99060000D01*
X356870000Y-99060000D02*
X334327500Y-99060000D01*
%TO.N,Net-(D18-A)*%
X103124000Y-92710000D02*
X100709000Y-95125000D01*
X103124000Y-90106500D02*
X103124000Y-92710000D01*
X102552500Y-89535000D02*
X103124000Y-90106500D01*
X100709000Y-95125000D02*
X100330000Y-95125000D01*
%TO.N,Net-(D19-A)*%
X122174000Y-92331000D02*
X119380000Y-95125000D01*
X121602500Y-89535000D02*
X122174000Y-90106500D01*
X122174000Y-90106500D02*
X122174000Y-92331000D01*
%TO.N,Net-(D20-A)*%
X141224000Y-92331000D02*
X138430000Y-95125000D01*
X141224000Y-90106500D02*
X141224000Y-92331000D01*
X140652500Y-89535000D02*
X141224000Y-90106500D01*
%TO.N,Net-(D21-A)*%
X159702500Y-89535000D02*
X160274000Y-90106500D01*
X160274000Y-90106500D02*
X160274000Y-92331000D01*
X160274000Y-92331000D02*
X157480000Y-95125000D01*
%TO.N,Net-(D22-A)*%
X179324000Y-92331000D02*
X176530000Y-95125000D01*
X178752500Y-89535000D02*
X179324000Y-90106500D01*
X179324000Y-90106500D02*
X179324000Y-92331000D01*
%TO.N,Net-(D23-A)*%
X198374000Y-92331000D02*
X195580000Y-95125000D01*
X197802500Y-89535000D02*
X198374000Y-90106500D01*
X198374000Y-90106500D02*
X198374000Y-92331000D01*
%TO.N,Net-(D24-A)*%
X217043000Y-89725500D02*
X217043000Y-92712000D01*
X217043000Y-92712000D02*
X214630000Y-95125000D01*
X216852500Y-89535000D02*
X217043000Y-89725500D01*
%TO.N,Net-(D25-A)*%
X235902500Y-89535000D02*
X236474000Y-90106500D01*
X236474000Y-92331000D02*
X233680000Y-95125000D01*
X236474000Y-90106500D02*
X236474000Y-92331000D01*
%TO.N,Net-(D26-A)*%
X255524000Y-90106500D02*
X255524000Y-92331000D01*
X254952500Y-89535000D02*
X255524000Y-90106500D01*
X255524000Y-92331000D02*
X252730000Y-95125000D01*
%TO.N,Net-(D27-A)*%
X274574000Y-92331000D02*
X271780000Y-95125000D01*
X274574000Y-90106500D02*
X274574000Y-92331000D01*
X274002500Y-89535000D02*
X274574000Y-90106500D01*
%TO.N,Net-(D28-A)*%
X293624000Y-92331000D02*
X290830000Y-95125000D01*
X293624000Y-90106500D02*
X293624000Y-92331000D01*
X293052500Y-89535000D02*
X293624000Y-90106500D01*
%TO.N,Net-(D29-A)*%
X312102500Y-89535000D02*
X312674000Y-90106500D01*
X312674000Y-92331000D02*
X309880000Y-95125000D01*
X312674000Y-90106500D02*
X312674000Y-92331000D01*
%TO.N,Net-(D30-A)*%
X336804000Y-90424000D02*
X336804000Y-92013500D01*
X336804000Y-92013500D02*
X333692500Y-95125000D01*
X335915000Y-89535000D02*
X336804000Y-90424000D01*
%TO.N,Net-(D31-A)*%
X357884000Y-95125000D02*
X357505000Y-95125000D01*
X360172000Y-92837000D02*
X357884000Y-95125000D01*
X360172000Y-89979500D02*
X360172000Y-92837000D01*
X359727500Y-89535000D02*
X360172000Y-89979500D01*
%TO.N,Net-(D32-A)*%
X81661000Y-112268000D02*
X79754000Y-114175000D01*
X79754000Y-114175000D02*
X78898750Y-114175000D01*
X81121250Y-108585000D02*
X81661000Y-109124750D01*
X81661000Y-109124750D02*
X81661000Y-112268000D01*
%TO.N,row2*%
X104457500Y-118110000D02*
X105092500Y-117475000D01*
X295592500Y-117475000D02*
X296227500Y-118110000D01*
X143827500Y-118110000D02*
X161607500Y-118110000D01*
X294957500Y-118110000D02*
X295592500Y-117475000D01*
X220027500Y-118110000D02*
X226949000Y-118110000D01*
X257492500Y-117475000D02*
X258127500Y-118110000D01*
X323215000Y-118110000D02*
X325913750Y-118110000D01*
X325913750Y-118110000D02*
X326548750Y-117475000D01*
X326548750Y-117475000D02*
X327183750Y-118110000D01*
X181927500Y-118110000D02*
X199707500Y-118110000D01*
X78898750Y-117475000D02*
X79533750Y-118110000D01*
X105727500Y-118110000D02*
X123507500Y-118110000D01*
X124777500Y-118110000D02*
X142557500Y-118110000D01*
X343281000Y-116840000D02*
X345694000Y-116840000D01*
X181292500Y-117475000D02*
X181927500Y-118110000D01*
X356870000Y-118110000D02*
X357505000Y-117475000D01*
X203055713Y-141917000D02*
X208551213Y-147412500D01*
X78898750Y-117475000D02*
X78263750Y-118110000D01*
X143192500Y-117475000D02*
X143827500Y-118110000D01*
X162242500Y-117475000D02*
X162877500Y-118110000D01*
X296227500Y-118110000D02*
X318254905Y-118110000D01*
X275907500Y-118110000D02*
X276542500Y-117475000D01*
X319524905Y-116840000D02*
X321945000Y-116840000D01*
X67300100Y-141917000D02*
X146051100Y-141917000D01*
X217297000Y-118110000D02*
X218757500Y-118110000D01*
X202311000Y-118110000D02*
X200977500Y-118110000D01*
X148248100Y-139720000D02*
X150328900Y-139720000D01*
X79533750Y-118110000D02*
X104457500Y-118110000D01*
X199452381Y-143313000D02*
X200848381Y-141917000D01*
X142557500Y-118110000D02*
X143192500Y-117475000D01*
X318254905Y-118110000D02*
X319524905Y-116840000D01*
X123507500Y-118110000D02*
X124142500Y-117475000D01*
X67284250Y-118643750D02*
X67284250Y-141901150D01*
X105092500Y-117475000D02*
X105727500Y-118110000D01*
X342011000Y-118110000D02*
X343281000Y-116840000D01*
X219392500Y-117475000D02*
X220027500Y-118110000D01*
X277177500Y-118110000D02*
X294957500Y-118110000D01*
X276542500Y-117475000D02*
X277177500Y-118110000D01*
X208551213Y-147412500D02*
X213886250Y-147412500D01*
X258127500Y-118110000D02*
X275907500Y-118110000D01*
X78263750Y-118110000D02*
X67818000Y-118110000D01*
X345694000Y-116840000D02*
X346964000Y-118110000D01*
X162877500Y-118110000D02*
X180657500Y-118110000D01*
X327183750Y-118110000D02*
X342011000Y-118110000D01*
X150328900Y-139720000D02*
X153921900Y-143313000D01*
X321945000Y-116840000D02*
X323215000Y-118110000D01*
X346964000Y-118110000D02*
X356870000Y-118110000D01*
X218757500Y-118110000D02*
X219392500Y-117475000D01*
X180657500Y-118110000D02*
X181292500Y-117475000D01*
X124142500Y-117475000D02*
X124777500Y-118110000D01*
X199707500Y-118110000D02*
X200342500Y-117475000D01*
X214249000Y-118110000D02*
X205613000Y-118110000D01*
X229235000Y-118110000D02*
X237807500Y-118110000D01*
X200848381Y-141917000D02*
X203055713Y-141917000D01*
X256857500Y-118110000D02*
X257492500Y-117475000D01*
X67284250Y-141901150D02*
X67300100Y-141917000D01*
X239077500Y-118110000D02*
X256857500Y-118110000D01*
X67818000Y-118110000D02*
X67284250Y-118643750D01*
X146051100Y-141917000D02*
X148248100Y-139720000D01*
X238442500Y-117475000D02*
X239077500Y-118110000D01*
X153921900Y-143313000D02*
X199452381Y-143313000D01*
X161607500Y-118110000D02*
X162242500Y-117475000D01*
X200977500Y-118110000D02*
X200342500Y-117475000D01*
X237807500Y-118110000D02*
X238442500Y-117475000D01*
%TO.N,Net-(D33-A)*%
X107950000Y-112014000D02*
X105789000Y-114175000D01*
X107315000Y-108585000D02*
X107950000Y-109220000D01*
X105789000Y-114175000D02*
X105092500Y-114175000D01*
X107950000Y-109220000D02*
X107950000Y-112014000D01*
%TO.N,Net-(D34-A)*%
X126365000Y-108585000D02*
X127000000Y-109220000D01*
X127000000Y-109220000D02*
X127000000Y-111887000D01*
X124712000Y-114175000D02*
X124142500Y-114175000D01*
X127000000Y-111887000D02*
X124712000Y-114175000D01*
%TO.N,Net-(D35-A)*%
X145796000Y-111887000D02*
X143508000Y-114175000D01*
X143508000Y-114175000D02*
X143192500Y-114175000D01*
X145796000Y-108966000D02*
X145796000Y-111887000D01*
X145415000Y-108585000D02*
X145796000Y-108966000D01*
%TO.N,Net-(D36-A)*%
X164465000Y-108585000D02*
X165100000Y-109220000D01*
X165100000Y-111760000D02*
X162685000Y-114175000D01*
X165100000Y-109220000D02*
X165100000Y-111760000D01*
X162685000Y-114175000D02*
X162242500Y-114175000D01*
%TO.N,Net-(D37-A)*%
X184150000Y-112014000D02*
X181989000Y-114175000D01*
X184150000Y-109220000D02*
X184150000Y-112014000D01*
X181989000Y-114175000D02*
X181292500Y-114175000D01*
X183515000Y-108585000D02*
X184150000Y-109220000D01*
%TO.N,Net-(D38-A)*%
X200627250Y-114175000D02*
X200342500Y-114175000D01*
X202819000Y-108839000D02*
X202819000Y-111983250D01*
X202819000Y-111983250D02*
X200627250Y-114175000D01*
X202565000Y-108585000D02*
X202819000Y-108839000D01*
%TO.N,Net-(D39-A)*%
X222250000Y-111792750D02*
X219867750Y-114175000D01*
X222250000Y-109220000D02*
X222250000Y-111792750D01*
X219867750Y-114175000D02*
X219392500Y-114175000D01*
X221615000Y-108585000D02*
X222250000Y-109220000D01*
%TO.N,Net-(D40-A)*%
X241300000Y-112141000D02*
X239266000Y-114175000D01*
X239266000Y-114175000D02*
X238442500Y-114175000D01*
X240665000Y-108585000D02*
X241300000Y-109220000D01*
X241300000Y-109220000D02*
X241300000Y-112141000D01*
%TO.N,Net-(D41-A)*%
X259715000Y-108585000D02*
X260350000Y-109220000D01*
X257935000Y-114175000D02*
X257492500Y-114175000D01*
X260350000Y-109220000D02*
X260350000Y-111760000D01*
X260350000Y-111760000D02*
X257935000Y-114175000D01*
%TO.N,Net-(D42-A)*%
X279527000Y-111633000D02*
X276985000Y-114175000D01*
X278765000Y-108585000D02*
X279527000Y-109347000D01*
X279527000Y-109347000D02*
X279527000Y-111633000D01*
X276985000Y-114175000D02*
X276542500Y-114175000D01*
%TO.N,Net-(D43-A)*%
X297815000Y-108585000D02*
X298450000Y-109220000D01*
X298450000Y-109220000D02*
X298450000Y-111760000D01*
X298450000Y-111760000D02*
X296035000Y-114175000D01*
X296035000Y-114175000D02*
X295592500Y-114175000D01*
%TO.N,Net-(D44-A)*%
X328771250Y-108585000D02*
X329565000Y-109378750D01*
X327023000Y-114175000D02*
X326548750Y-114175000D01*
X329565000Y-109378750D02*
X329565000Y-111633000D01*
X329565000Y-111633000D02*
X327023000Y-114175000D01*
%TO.N,Net-(D45-A)*%
X360299000Y-112141000D02*
X358265000Y-114175000D01*
X359727500Y-108585000D02*
X360299000Y-109156500D01*
X358265000Y-114175000D02*
X357505000Y-114175000D01*
X360299000Y-109156500D02*
X360299000Y-112141000D01*
%TO.N,Net-(D46-A)*%
X85883750Y-127635000D02*
X86487000Y-128238250D01*
X86487000Y-128238250D02*
X86487000Y-131064000D01*
X86487000Y-131064000D02*
X84326000Y-133225000D01*
X84326000Y-133225000D02*
X83661250Y-133225000D01*
%TO.N,row3*%
X134302500Y-137160000D02*
X133667500Y-136525000D01*
X100457000Y-135636000D02*
X98933000Y-137160000D01*
X200682281Y-141516000D02*
X199286281Y-142912000D01*
X83661250Y-141065250D02*
X83661250Y-136525000D01*
X84112000Y-141516000D02*
X83661250Y-141065250D01*
X285432500Y-137160000D02*
X267652500Y-137160000D01*
X113982500Y-137160000D02*
X104147095Y-137160000D01*
X267652500Y-137160000D02*
X267017500Y-136525000D01*
X286702500Y-137160000D02*
X286067500Y-136525000D01*
X247332500Y-137160000D02*
X229552500Y-137160000D01*
X115252500Y-137160000D02*
X114617500Y-136525000D01*
X152717500Y-136525000D02*
X152082500Y-137160000D01*
X357505000Y-136525000D02*
X356870000Y-137160000D01*
X104147095Y-137160000D02*
X102623095Y-135636000D01*
X213614000Y-137160000D02*
X210502500Y-137160000D01*
X210502500Y-137160000D02*
X209867500Y-136525000D01*
X150495000Y-139319000D02*
X148082000Y-139319000D01*
X98933000Y-137160000D02*
X84296250Y-137160000D01*
X266382500Y-137160000D02*
X248602500Y-137160000D01*
X102623095Y-135636000D02*
X100457000Y-135636000D01*
X356870000Y-137160000D02*
X339090000Y-137160000D01*
X339090000Y-137160000D02*
X338455000Y-136525000D01*
X247967500Y-136525000D02*
X247332500Y-137160000D01*
X338455000Y-136525000D02*
X337820000Y-137160000D01*
X203221813Y-141516000D02*
X200682281Y-141516000D01*
X190182500Y-137160000D02*
X172402500Y-137160000D01*
X145885000Y-141516000D02*
X84112000Y-141516000D01*
X204470000Y-137160000D02*
X209232500Y-137160000D01*
X248602500Y-137160000D02*
X247967500Y-136525000D01*
X208318313Y-146612500D02*
X203221813Y-141516000D01*
X337820000Y-137160000D02*
X312896250Y-137160000D01*
X133667500Y-136525000D02*
X133032500Y-137160000D01*
X172402500Y-137160000D02*
X171767500Y-136525000D01*
X148082000Y-139319000D02*
X145885000Y-141516000D01*
X171132500Y-137160000D02*
X153352500Y-137160000D01*
X171767500Y-136525000D02*
X171132500Y-137160000D01*
X267017500Y-136525000D02*
X266382500Y-137160000D01*
X152082500Y-137160000D02*
X134302500Y-137160000D01*
X228282500Y-137160000D02*
X228917500Y-136525000D01*
X213886250Y-146612500D02*
X208318313Y-146612500D01*
X222758000Y-137160000D02*
X228282500Y-137160000D01*
X84296250Y-137160000D02*
X83661250Y-136525000D01*
X133032500Y-137160000D02*
X115252500Y-137160000D01*
X199286281Y-142912000D02*
X154088000Y-142912000D01*
X209232500Y-137160000D02*
X209867500Y-136525000D01*
X286067500Y-136525000D02*
X285432500Y-137160000D01*
X312896250Y-137160000D02*
X312261250Y-136525000D01*
X114617500Y-136525000D02*
X113982500Y-137160000D01*
X312261250Y-136525000D02*
X311626250Y-137160000D01*
X229552500Y-137160000D02*
X228917500Y-136525000D01*
X153352500Y-137160000D02*
X152717500Y-136525000D01*
X311626250Y-137160000D02*
X286702500Y-137160000D01*
X191452500Y-137160000D02*
X190817500Y-136525000D01*
X190817500Y-136525000D02*
X190182500Y-137160000D01*
X154088000Y-142912000D02*
X150495000Y-139319000D01*
X202693000Y-137160000D02*
X191452500Y-137160000D01*
%TO.N,Net-(D47-A)*%
X117348000Y-128143000D02*
X117348000Y-130842750D01*
X116840000Y-127635000D02*
X117348000Y-128143000D01*
X114965750Y-133225000D02*
X114617500Y-133225000D01*
X117348000Y-130842750D02*
X114965750Y-133225000D01*
%TO.N,Net-(D48-A)*%
X136398000Y-131064000D02*
X134237000Y-133225000D01*
X134237000Y-133225000D02*
X133667500Y-133225000D01*
X136398000Y-128143000D02*
X136398000Y-131064000D01*
X135890000Y-127635000D02*
X136398000Y-128143000D01*
%TO.N,Net-(D49-A)*%
X155448000Y-128143000D02*
X155448000Y-131191000D01*
X154940000Y-127635000D02*
X155448000Y-128143000D01*
X153414000Y-133225000D02*
X152717500Y-133225000D01*
X155448000Y-131191000D02*
X153414000Y-133225000D01*
%TO.N,Net-(D50-A)*%
X173990000Y-127635000D02*
X174625000Y-128270000D01*
X172591000Y-133225000D02*
X171767500Y-133225000D01*
X174625000Y-131191000D02*
X172591000Y-133225000D01*
X174625000Y-128270000D02*
X174625000Y-131191000D01*
%TO.N,Net-(D51-A)*%
X191641000Y-133225000D02*
X190817500Y-133225000D01*
X193548000Y-128143000D02*
X193548000Y-131318000D01*
X193040000Y-127635000D02*
X193548000Y-128143000D01*
X193548000Y-131318000D02*
X191641000Y-133225000D01*
%TO.N,Net-(D52-A)*%
X212725000Y-130810000D02*
X210310000Y-133225000D01*
X210310000Y-133225000D02*
X209867500Y-133225000D01*
X212090000Y-127635000D02*
X212725000Y-128270000D01*
X212725000Y-128270000D02*
X212725000Y-130810000D01*
%TO.N,Net-(D53-A)*%
X231648000Y-131572000D02*
X229995000Y-133225000D01*
X231140000Y-127635000D02*
X231648000Y-128143000D01*
X229995000Y-133225000D02*
X228917500Y-133225000D01*
X231648000Y-128143000D02*
X231648000Y-131572000D01*
%TO.N,Net-(D54-A)*%
X250190000Y-127635000D02*
X250698000Y-128143000D01*
X248537000Y-133225000D02*
X247967500Y-133225000D01*
X250698000Y-131064000D02*
X248537000Y-133225000D01*
X250698000Y-128143000D02*
X250698000Y-131064000D01*
%TO.N,Net-(D55-A)*%
X267841000Y-133225000D02*
X267017500Y-133225000D01*
X269875000Y-131191000D02*
X267841000Y-133225000D01*
X269875000Y-128270000D02*
X269875000Y-131191000D01*
X269240000Y-127635000D02*
X269875000Y-128270000D01*
%TO.N,Net-(D56-A)*%
X288290000Y-127635000D02*
X288798000Y-128143000D01*
X288798000Y-128143000D02*
X288798000Y-131318000D01*
X286891000Y-133225000D02*
X286067500Y-133225000D01*
X288798000Y-131318000D02*
X286891000Y-133225000D01*
%TO.N,Net-(D57-A)*%
X313053000Y-133225000D02*
X312261250Y-133225000D01*
X314483750Y-127635000D02*
X314960000Y-128111250D01*
X314960000Y-128111250D02*
X314960000Y-131318000D01*
X314960000Y-131318000D02*
X313053000Y-133225000D01*
%TO.N,Net-(D58-A)*%
X340677500Y-127635000D02*
X341122000Y-128079500D01*
X341122000Y-128079500D02*
X341122000Y-131191000D01*
X339088000Y-133225000D02*
X338455000Y-133225000D01*
X341122000Y-131191000D02*
X339088000Y-133225000D01*
%TO.N,Net-(D59-A)*%
X360172000Y-131318000D02*
X358265000Y-133225000D01*
X359727500Y-127635000D02*
X360172000Y-128079500D01*
X360172000Y-128079500D02*
X360172000Y-131318000D01*
X358265000Y-133225000D02*
X357505000Y-133225000D01*
%TO.N,row4*%
X74898250Y-156337000D02*
X97186750Y-156337000D01*
X192436750Y-156337000D02*
X193198750Y-155575000D01*
X193198750Y-155575000D02*
X198154000Y-160530250D01*
X281940000Y-156210000D02*
X299720000Y-156210000D01*
X198154000Y-160530250D02*
X257299750Y-160530250D01*
X206883000Y-151257000D02*
X201803000Y-156337000D01*
X300990000Y-156210000D02*
X318770000Y-156210000D01*
X210439000Y-151384000D02*
X210312000Y-151257000D01*
X151892000Y-156337000D02*
X192436750Y-156337000D01*
X213886250Y-151412500D02*
X213456400Y-151412500D01*
X146431000Y-156337000D02*
X148082000Y-154686000D01*
X299720000Y-156210000D02*
X300355000Y-155575000D01*
X150241000Y-154686000D02*
X151892000Y-156337000D01*
X213427900Y-151384000D02*
X210439000Y-151384000D01*
X281305000Y-155575000D02*
X281940000Y-156210000D01*
X74136250Y-155575000D02*
X74898250Y-156337000D01*
X257299750Y-160530250D02*
X262255000Y-155575000D01*
X97948750Y-155575000D02*
X98710750Y-156337000D01*
X320040000Y-156210000D02*
X337820000Y-156210000D01*
X98710750Y-156337000D02*
X121124250Y-156337000D01*
X319405000Y-155575000D02*
X320040000Y-156210000D01*
X356932500Y-156210000D02*
X357505000Y-155637500D01*
X262255000Y-155575000D02*
X262890000Y-156210000D01*
X210312000Y-151257000D02*
X206883000Y-151257000D01*
X318770000Y-156210000D02*
X319405000Y-155575000D01*
X213456400Y-151412500D02*
X213427900Y-151384000D01*
X337820000Y-156210000D02*
X338455000Y-155575000D01*
X148082000Y-154686000D02*
X150241000Y-154686000D01*
X201803000Y-156337000D02*
X193960750Y-156337000D01*
X338607400Y-155575000D02*
X339242400Y-156210000D01*
X121761250Y-155700000D02*
X122398250Y-156337000D01*
X338455000Y-155575000D02*
X338607400Y-155575000D01*
X122398250Y-156337000D02*
X146431000Y-156337000D01*
X121124250Y-156337000D02*
X121761250Y-155700000D01*
X339242400Y-156210000D02*
X356932500Y-156210000D01*
X300355000Y-155575000D02*
X300990000Y-156210000D01*
X193960750Y-156337000D02*
X193198750Y-155575000D01*
X97186750Y-156337000D02*
X97948750Y-155575000D01*
X280670000Y-156210000D02*
X281305000Y-155575000D01*
X262890000Y-156210000D02*
X280670000Y-156210000D01*
%TO.N,Net-(D60-A)*%
X77089000Y-149987000D02*
X74801000Y-152275000D01*
X76358750Y-146685000D02*
X77089000Y-147415250D01*
X74801000Y-152275000D02*
X74136250Y-152275000D01*
X77089000Y-147415250D02*
X77089000Y-149987000D01*
%TO.N,Net-(D61-A)*%
X100838000Y-149987000D02*
X98550000Y-152275000D01*
X98550000Y-152275000D02*
X97948750Y-152275000D01*
X100171250Y-146685000D02*
X100838000Y-147351750D01*
X100838000Y-147351750D02*
X100838000Y-149987000D01*
%TO.N,Net-(D62-A)*%
X124714000Y-147415250D02*
X124714000Y-150114000D01*
X122428000Y-152400000D02*
X121761250Y-152400000D01*
X124714000Y-150114000D02*
X122428000Y-152400000D01*
X123983750Y-146685000D02*
X124714000Y-147415250D01*
%TO.N,Net-(D63-A)*%
X195421250Y-150052500D02*
X193198750Y-152275000D01*
X195421250Y-146685000D02*
X195421250Y-150052500D01*
%TO.N,Net-(D64-A)*%
X264922000Y-147129500D02*
X264922000Y-149987000D01*
X264477500Y-146685000D02*
X264922000Y-147129500D01*
X262634000Y-152275000D02*
X262255000Y-152275000D01*
X264922000Y-149987000D02*
X262634000Y-152275000D01*
%TO.N,Net-(D65-A)*%
X281938000Y-152275000D02*
X281305000Y-152275000D01*
X283527500Y-146685000D02*
X283972000Y-147129500D01*
X283972000Y-150241000D02*
X281938000Y-152275000D01*
X283972000Y-147129500D02*
X283972000Y-150241000D01*
%TO.N,Net-(D66-A)*%
X303149000Y-147256500D02*
X303149000Y-149987000D01*
X302577500Y-146685000D02*
X303149000Y-147256500D01*
X303149000Y-149987000D02*
X300861000Y-152275000D01*
X300861000Y-152275000D02*
X300355000Y-152275000D01*
%TO.N,Net-(D67-A)*%
X320165000Y-152275000D02*
X319405000Y-152275000D01*
X321627500Y-146685000D02*
X321945000Y-147002500D01*
X321945000Y-150495000D02*
X320165000Y-152275000D01*
X321945000Y-147002500D02*
X321945000Y-150495000D01*
%TO.N,Net-(D68-A)*%
X340677500Y-146685000D02*
X341122000Y-147129500D01*
X341122000Y-147129500D02*
X341122000Y-150114000D01*
X341122000Y-150114000D02*
X338961000Y-152275000D01*
X338961000Y-152275000D02*
X338455000Y-152275000D01*
%TO.N,Net-(D69-A)*%
X360045000Y-147002500D02*
X360045000Y-150241000D01*
X357948500Y-152337500D02*
X357505000Y-152337500D01*
X360045000Y-150241000D02*
X357948500Y-152337500D01*
X359727500Y-146685000D02*
X360045000Y-147002500D01*
%TO.N,SCK*%
X223435091Y-140089418D02*
X223435091Y-141142852D01*
X221986250Y-142591693D02*
X221986250Y-143312500D01*
X208262598Y-139914000D02*
X208275480Y-139926882D01*
X181396000Y-139914000D02*
X208262598Y-139914000D01*
X223435091Y-141142852D02*
X221986250Y-142591693D01*
X180340000Y-141986000D02*
X180340000Y-140970000D01*
X180340000Y-140970000D02*
X181396000Y-139914000D01*
%TO.N,MISO*%
X224036091Y-141108952D02*
X222786250Y-142358793D01*
X204142358Y-139513000D02*
X204460225Y-139195133D01*
X179539997Y-141986000D02*
X179539997Y-141135003D01*
X181162000Y-139513000D02*
X204142358Y-139513000D01*
X224036091Y-138184091D02*
X224036091Y-141108952D01*
X222786250Y-142358793D02*
X222786250Y-143312500D01*
X179539997Y-141135003D02*
X181162000Y-139513000D01*
X223718500Y-137866500D02*
X224036091Y-138184091D01*
X222123000Y-137866500D02*
X223718500Y-137866500D01*
%TO.N,RESET*%
X230251000Y-141605000D02*
X238125000Y-141605000D01*
X238125000Y-141605000D02*
X238252000Y-141605000D01*
X181129118Y-140942882D02*
X181757000Y-140315000D01*
X225286250Y-145812500D02*
X226236250Y-145812500D01*
X239141000Y-142494000D02*
X240554000Y-142494000D01*
X181757000Y-140315000D02*
X206426500Y-140315000D01*
X226314000Y-141732000D02*
X226695000Y-142113000D01*
X226695000Y-145353750D02*
X226695000Y-142113000D01*
X240521000Y-145998000D02*
X240521000Y-152198000D01*
X238252000Y-141605000D02*
X239141000Y-142494000D01*
X226236250Y-145812500D02*
X226695000Y-145353750D01*
X182745077Y-147281997D02*
X182747225Y-147284145D01*
X181140003Y-141986000D02*
X181129934Y-141975931D01*
X181129118Y-141858163D02*
X181129118Y-140942882D01*
X181129934Y-141858979D02*
X181129118Y-141858163D01*
X206838372Y-140726872D02*
X208280062Y-140726872D01*
X240554000Y-142494000D02*
X240554000Y-142555000D01*
X226695000Y-142113000D02*
X227203000Y-141605000D01*
X226187000Y-141605000D02*
X226314000Y-141732000D01*
X226115500Y-141533500D02*
X226314000Y-141732000D01*
X227203000Y-141605000D02*
X228841500Y-141605000D01*
X240554000Y-142555000D02*
X240521000Y-142588000D01*
X206426500Y-140315000D02*
X206838372Y-140726872D01*
X238252000Y-141605000D02*
X239014000Y-142367000D01*
X181129934Y-141975931D02*
X181129934Y-141858979D01*
X240521000Y-142588000D02*
X240521000Y-145998000D01*
%TO.N,MOSI*%
X187579000Y-149606000D02*
X187360855Y-149824145D01*
X206248000Y-140716000D02*
X207058874Y-141526874D01*
X207058874Y-141526874D02*
X208279963Y-141526874D01*
X182118000Y-140716000D02*
X206248000Y-140716000D01*
X221186250Y-142541750D02*
X221742000Y-141986000D01*
X221186250Y-143312500D02*
X221186250Y-142541750D01*
X187360855Y-149824145D02*
X185287225Y-149824145D01*
X181940006Y-140893994D02*
X182118000Y-140716000D01*
X181940006Y-141986000D02*
X181940006Y-140893994D01*
X187579000Y-148590000D02*
X187579000Y-149606000D01*
%TO.N,Net-(U1-~{HWB}{slash}PE2)*%
X213709000Y-155988000D02*
X213709000Y-157099000D01*
X215586250Y-154712500D02*
X214984500Y-154712500D01*
X214984500Y-154712500D02*
X213709000Y-155988000D01*
%TO.N,D-*%
X222685400Y-131377202D02*
X222156802Y-131905800D01*
X221214000Y-75336098D02*
X221214000Y-87458802D01*
X217580000Y-91092802D02*
X217580000Y-106459802D01*
X215979800Y-139640798D02*
X217361250Y-141022248D01*
X221861000Y-67810000D02*
X222631000Y-68580000D01*
X215573400Y-118660398D02*
X222685400Y-125772398D01*
X222685400Y-125772398D02*
X222685400Y-131377202D01*
X215979800Y-133411389D02*
X215979800Y-139640798D01*
X217485389Y-131905800D02*
X215979800Y-133411389D01*
X217361250Y-142012499D02*
X217186250Y-142187499D01*
X222156802Y-131905800D02*
X217485389Y-131905800D01*
X220821000Y-67810000D02*
X221861000Y-67810000D01*
X215573400Y-108466402D02*
X215573400Y-118660398D01*
X222631000Y-73919098D02*
X221214000Y-75336098D01*
X217186250Y-142187499D02*
X217186250Y-143312500D01*
X217580000Y-106459802D02*
X215573400Y-108466402D01*
X217361250Y-141022248D02*
X217361250Y-142012499D01*
X222631000Y-68580000D02*
X222631000Y-73919098D01*
X221214000Y-87458802D02*
X217580000Y-91092802D01*
%TO.N,D+*%
X216429800Y-133597757D02*
X217671757Y-132355800D01*
X217811250Y-140835852D02*
X216429800Y-139454402D01*
X216023400Y-108652798D02*
X218030000Y-106646198D01*
X218030000Y-106646198D02*
X218030000Y-91279198D01*
X217986250Y-142187499D02*
X217811250Y-142012499D01*
X223135400Y-131563598D02*
X223135400Y-125586002D01*
X217986250Y-143312500D02*
X217986250Y-142187499D01*
X222343198Y-132355800D02*
X223135400Y-131563598D01*
X217811250Y-142012499D02*
X217811250Y-140835852D01*
X223032000Y-74085198D02*
X223032000Y-68092000D01*
X218030000Y-91279198D02*
X221615000Y-87694198D01*
X216023400Y-118474002D02*
X216023400Y-108652798D01*
X223032000Y-68092000D02*
X221750000Y-66810000D01*
X221615000Y-75502198D02*
X223032000Y-74085198D01*
X223135400Y-125586002D02*
X216023400Y-118474002D01*
X221750000Y-66810000D02*
X220821000Y-66810000D01*
X216429800Y-139454402D02*
X216429800Y-133597757D01*
X217671757Y-132355800D02*
X222343198Y-132355800D01*
X221615000Y-87694198D02*
X221615000Y-75502198D01*
%TO.N,col0*%
X210439000Y-159930250D02*
X215318500Y-159930250D01*
X219586250Y-155662500D02*
X219586250Y-154712500D01*
X215318500Y-159930250D02*
X219586250Y-155662500D01*
%TO.N,col1*%
X215130750Y-159318000D02*
X210038471Y-159318000D01*
X218786250Y-154712500D02*
X218786250Y-155662500D01*
X218786250Y-155662500D02*
X215130750Y-159318000D01*
X210038471Y-159318000D02*
X209532609Y-159823862D01*
%TO.N,col2*%
X209400250Y-158917000D02*
X208788000Y-159529250D01*
X214731750Y-158917000D02*
X209400250Y-158917000D01*
X217986250Y-155662500D02*
X214731750Y-158917000D01*
X217986250Y-154712500D02*
X217986250Y-155662500D01*
%TO.N,col3*%
X217186250Y-154712500D02*
X217186250Y-155775010D01*
X208620123Y-158516000D02*
X208007873Y-159128250D01*
X214445260Y-158516000D02*
X208620123Y-158516000D01*
X217186250Y-155775010D02*
X214445260Y-158516000D01*
%TO.N,col4*%
X216386250Y-156007910D02*
X214279160Y-158115000D01*
X214279160Y-158115000D02*
X207916969Y-158115000D01*
X207916969Y-158115000D02*
X207332453Y-158699516D01*
X216386250Y-154712500D02*
X216386250Y-156007910D01*
%TO.N,col5*%
X209482813Y-150612500D02*
X213886250Y-150612500D01*
X203393235Y-144805765D02*
X203676078Y-144805765D01*
X203676078Y-144805765D02*
X209482813Y-150612500D01*
%TO.N,col6*%
X209249913Y-149812500D02*
X213886250Y-149812500D01*
X201771250Y-144145000D02*
X203582413Y-144145000D01*
X203582413Y-144145000D02*
X209249913Y-149812500D01*
%TO.N,col7*%
X228854000Y-137922000D02*
X233807000Y-137922000D01*
X225425000Y-142367000D02*
X225425000Y-141351000D01*
X224479500Y-143312500D02*
X225425000Y-142367000D01*
X225425000Y-141351000D02*
X228854000Y-137922000D01*
X223586250Y-143312500D02*
X224479500Y-143312500D01*
%TO.N,col8*%
X231652057Y-157301775D02*
X231653057Y-157300775D01*
X232151943Y-157301775D02*
X232627630Y-157301775D01*
X226901100Y-151920800D02*
X229041000Y-154060700D01*
X226901100Y-151510250D02*
X226901100Y-151920800D01*
X229041000Y-154060700D02*
X229041000Y-156216950D01*
X230125825Y-157301775D02*
X231652057Y-157301775D01*
X226003350Y-150612500D02*
X226901100Y-151510250D01*
X231653057Y-157300775D02*
X232150943Y-157300775D01*
X232150943Y-157300775D02*
X232151943Y-157301775D01*
X225286250Y-150612500D02*
X226003350Y-150612500D01*
X229041000Y-156216950D02*
X230125825Y-157301775D01*
%TO.N,col9*%
X226088500Y-151412500D02*
X226500100Y-151824100D01*
X226500100Y-152086900D02*
X226500100Y-151824100D01*
X228640000Y-154226800D02*
X226500100Y-152086900D01*
X231902000Y-157901775D02*
X230158725Y-157901775D01*
X228640000Y-156383050D02*
X228640000Y-154226800D01*
X230158725Y-157901775D02*
X228640000Y-156383050D01*
X226088500Y-151412500D02*
X225286250Y-151412500D01*
%TO.N,col10*%
X228239000Y-156549150D02*
X228239000Y-154392900D01*
X228239000Y-154392900D02*
X226058600Y-152212500D01*
X231003864Y-158496000D02*
X230185850Y-158496000D01*
X231036114Y-158528250D02*
X231003864Y-158496000D01*
X230185850Y-158496000D02*
X228239000Y-156549150D01*
X226058600Y-152212500D02*
X225286250Y-152212500D01*
%TO.N,col11*%
X227838000Y-154559000D02*
X226291500Y-153012500D01*
X227838000Y-156715250D02*
X227838000Y-154559000D01*
X230251000Y-159128250D02*
X227838000Y-156715250D01*
X226291500Y-153012500D02*
X225286250Y-153012500D01*
%TO.N,col12*%
X224282000Y-158623000D02*
X221986250Y-156327250D01*
X229554019Y-159529250D02*
X228647769Y-158623000D01*
X228647769Y-158623000D02*
X224282000Y-158623000D01*
X221986250Y-156327250D02*
X221986250Y-154712500D01*
%TO.N,col13*%
X221186250Y-156094350D02*
X224115900Y-159024000D01*
X224115900Y-159024000D02*
X227966367Y-159024000D01*
X227966367Y-159024000D02*
X228756536Y-159814169D01*
X221186250Y-154712500D02*
X221186250Y-156094350D01*
%TO.N,col14*%
X227459750Y-159425000D02*
X227965000Y-159930250D01*
X223949800Y-159425000D02*
X227459750Y-159425000D01*
X220386250Y-155861450D02*
X223949800Y-159425000D01*
X220386250Y-154712500D02*
X220386250Y-155861450D01*
%TO.N,XTAL2*%
X225286250Y-148212500D02*
X226718200Y-148212500D01*
X228677500Y-146253200D02*
X230712000Y-146253200D01*
X231959000Y-147500200D02*
X231959000Y-147650200D01*
X233908600Y-147650200D02*
X234162600Y-147904200D01*
X231959000Y-147650200D02*
X233908600Y-147650200D01*
X226718200Y-148212500D02*
X228677500Y-146253200D01*
X230712000Y-146253200D02*
X231959000Y-147500200D01*
%TD*%
%TA.AperFunction,Conductor*%
%TO.N,GND*%
G36*
X238265573Y-142259685D02*
G01*
X238286215Y-142276319D01*
X238340667Y-142330771D01*
X238374152Y-142392094D01*
X238376978Y-142419845D01*
X238297216Y-149518793D01*
X238265386Y-152351700D01*
X238253378Y-153420393D01*
X238232942Y-153487207D01*
X238179627Y-153532366D01*
X238129386Y-153543000D01*
X229211766Y-153543000D01*
X229144727Y-153523315D01*
X229124085Y-153506681D01*
X227387919Y-151770515D01*
X227354434Y-151709192D01*
X227351600Y-151682834D01*
X227351600Y-151450943D01*
X227351600Y-151450941D01*
X227320899Y-151336364D01*
X227320899Y-151336363D01*
X227261589Y-151233636D01*
X227015029Y-150987076D01*
X226981544Y-150925753D01*
X226978718Y-150898011D01*
X226993465Y-149585606D01*
X227013901Y-149518793D01*
X227067216Y-149473634D01*
X227117457Y-149463000D01*
X227883335Y-149463000D01*
X227950374Y-149482685D01*
X227971016Y-149499319D01*
X228372181Y-149900484D01*
X228405666Y-149961807D01*
X228408500Y-149988165D01*
X228408500Y-151633460D01*
X228418426Y-151701591D01*
X228469803Y-151806685D01*
X228552514Y-151889396D01*
X228552515Y-151889396D01*
X228552517Y-151889398D01*
X228657607Y-151940773D01*
X228691673Y-151945736D01*
X228725739Y-151950700D01*
X228725740Y-151950700D01*
X229943634Y-151950700D01*
X230010673Y-151970385D01*
X230031315Y-151987019D01*
X230305986Y-152261690D01*
X230408714Y-152320999D01*
X230523291Y-152351700D01*
X230523294Y-152351700D01*
X233442908Y-152351700D01*
X233442909Y-152351700D01*
X233533273Y-152327486D01*
X233557487Y-152320999D01*
X233660214Y-152261689D01*
X234548489Y-151373414D01*
X234552126Y-151367113D01*
X234602690Y-151318895D01*
X234643331Y-151306168D01*
X234682262Y-151301044D01*
X234828341Y-151240536D01*
X234953782Y-151144282D01*
X235040922Y-151030718D01*
X235097347Y-150989517D01*
X235167093Y-150985362D01*
X235228014Y-151019574D01*
X235244835Y-151041109D01*
X235333184Y-151184345D01*
X235457154Y-151308315D01*
X235606375Y-151400356D01*
X235606380Y-151400358D01*
X235772802Y-151455505D01*
X235772809Y-151455506D01*
X235875519Y-151465999D01*
X236012999Y-151465999D01*
X236513000Y-151465999D01*
X236650472Y-151465999D01*
X236650486Y-151465998D01*
X236753197Y-151455505D01*
X236919619Y-151400358D01*
X236919624Y-151400356D01*
X237068845Y-151308315D01*
X237192815Y-151184345D01*
X237284856Y-151035124D01*
X237284858Y-151035119D01*
X237340005Y-150868697D01*
X237340006Y-150868690D01*
X237350499Y-150765986D01*
X237350500Y-150765973D01*
X237350500Y-150491000D01*
X236513000Y-150491000D01*
X236513000Y-151465999D01*
X236012999Y-151465999D01*
X236013000Y-151465998D01*
X236013000Y-149250122D01*
X235990434Y-149208796D01*
X235987600Y-149182438D01*
X235987600Y-148895077D01*
X236487600Y-148895077D01*
X236510166Y-148936404D01*
X236513000Y-148962762D01*
X236513000Y-149991000D01*
X237350499Y-149991000D01*
X237350499Y-149716028D01*
X237350498Y-149716013D01*
X237340005Y-149613302D01*
X237284858Y-149446880D01*
X237284856Y-149446875D01*
X237192815Y-149297654D01*
X237068845Y-149173684D01*
X237061570Y-149169197D01*
X237014845Y-149117250D01*
X237003621Y-149048288D01*
X237031463Y-148984205D01*
X237038984Y-148975975D01*
X237167417Y-148847542D01*
X237259456Y-148698324D01*
X237259458Y-148698319D01*
X237314605Y-148531897D01*
X237314606Y-148531890D01*
X237325099Y-148429186D01*
X237325100Y-148429173D01*
X237325100Y-148154200D01*
X236487600Y-148154200D01*
X236487600Y-148895077D01*
X235987600Y-148895077D01*
X235987600Y-147654200D01*
X236487600Y-147654200D01*
X237325099Y-147654200D01*
X237325099Y-147379228D01*
X237325098Y-147379213D01*
X237314605Y-147276502D01*
X237259458Y-147110080D01*
X237259456Y-147110075D01*
X237167415Y-146960854D01*
X237043445Y-146836884D01*
X236894224Y-146744843D01*
X236894219Y-146744841D01*
X236727797Y-146689694D01*
X236727790Y-146689693D01*
X236625086Y-146679200D01*
X236487600Y-146679200D01*
X236487600Y-147654200D01*
X235987600Y-147654200D01*
X235987600Y-146679200D01*
X235850127Y-146679200D01*
X235850112Y-146679201D01*
X235747402Y-146689694D01*
X235580980Y-146744841D01*
X235580975Y-146744843D01*
X235431754Y-146836884D01*
X235307783Y-146960855D01*
X235307780Y-146960859D01*
X235219434Y-147104090D01*
X235167486Y-147150815D01*
X235098524Y-147162036D01*
X235034442Y-147134193D01*
X235015520Y-147114479D01*
X234998696Y-147092554D01*
X234962520Y-147045408D01*
X234928383Y-147000919D01*
X234928382Y-147000918D01*
X234802941Y-146904664D01*
X234656862Y-146844156D01*
X234656860Y-146844155D01*
X234539461Y-146828700D01*
X233785736Y-146828700D01*
X233668346Y-146844153D01*
X233668337Y-146844156D01*
X233522257Y-146904664D01*
X233408986Y-146991581D01*
X233343817Y-147016775D01*
X233275372Y-147002737D01*
X233225383Y-146953923D01*
X233209500Y-146893205D01*
X233209500Y-146566939D01*
X233199573Y-146498808D01*
X233190941Y-146481150D01*
X233148198Y-146393717D01*
X233148196Y-146393715D01*
X233148196Y-146393714D01*
X233065485Y-146311003D01*
X232960391Y-146259626D01*
X232892261Y-146249700D01*
X232892260Y-146249700D01*
X231396965Y-146249700D01*
X231329926Y-146230015D01*
X231309284Y-146213381D01*
X230988616Y-145892713D01*
X230988614Y-145892711D01*
X230909353Y-145846949D01*
X230885888Y-145833401D01*
X230873780Y-145830157D01*
X230861673Y-145826913D01*
X230843810Y-145822126D01*
X230784151Y-145785761D01*
X230784150Y-145785760D01*
X230753622Y-145722912D01*
X230753622Y-145722905D01*
X230752548Y-145689747D01*
X230756999Y-145646181D01*
X230757000Y-145646173D01*
X230757000Y-145508700D01*
X229782000Y-145508700D01*
X229782000Y-145678700D01*
X229762315Y-145745739D01*
X229709511Y-145791494D01*
X229658000Y-145802700D01*
X229406000Y-145802700D01*
X229338961Y-145783015D01*
X229293206Y-145730211D01*
X229282000Y-145678700D01*
X229282000Y-145382700D01*
X229301685Y-145315661D01*
X229354489Y-145269906D01*
X229406000Y-145258700D01*
X229532000Y-145258700D01*
X229532000Y-145132700D01*
X229551685Y-145065661D01*
X229604489Y-145019906D01*
X229656000Y-145008700D01*
X230756999Y-145008700D01*
X230756999Y-144871228D01*
X230756998Y-144871213D01*
X230746505Y-144768502D01*
X230691358Y-144602080D01*
X230691356Y-144602075D01*
X230599315Y-144452854D01*
X230475345Y-144328884D01*
X230332109Y-144240535D01*
X230285384Y-144188587D01*
X230274163Y-144119624D01*
X230302006Y-144055542D01*
X230321715Y-144036624D01*
X230435282Y-143949482D01*
X230531536Y-143824041D01*
X230592044Y-143677962D01*
X230607500Y-143560561D01*
X230607499Y-142806840D01*
X230607499Y-142806839D01*
X230607499Y-142806836D01*
X230592046Y-142689446D01*
X230592044Y-142689439D01*
X230592044Y-142689438D01*
X230531536Y-142543359D01*
X230451829Y-142439483D01*
X230426637Y-142374318D01*
X230440675Y-142305873D01*
X230489489Y-142255883D01*
X230550207Y-142240000D01*
X238198534Y-142240000D01*
X238265573Y-142259685D01*
G37*
%TD.AperFunction*%
%TA.AperFunction,Conductor*%
G36*
X235202614Y-148682774D02*
G01*
X235219435Y-148704309D01*
X235307784Y-148847545D01*
X235431757Y-148971518D01*
X235439026Y-148976001D01*
X235485753Y-149027947D01*
X235496978Y-149096909D01*
X235469137Y-149160992D01*
X235461616Y-149169223D01*
X235333180Y-149297659D01*
X235244834Y-149440890D01*
X235192886Y-149487615D01*
X235123924Y-149498836D01*
X235059842Y-149470993D01*
X235040920Y-149451279D01*
X234953783Y-149337719D01*
X234925675Y-149316151D01*
X234828341Y-149241464D01*
X234754799Y-149211002D01*
X234684541Y-149181900D01*
X234630138Y-149138059D01*
X234608073Y-149071765D01*
X234625352Y-149004065D01*
X234676490Y-148956455D01*
X234684529Y-148952783D01*
X234802941Y-148903736D01*
X234928382Y-148807482D01*
X235015522Y-148693918D01*
X235071947Y-148652717D01*
X235141693Y-148648562D01*
X235202614Y-148682774D01*
G37*
%TD.AperFunction*%
%TA.AperFunction,Conductor*%
G36*
X233305372Y-148759818D02*
G01*
X233309552Y-148759003D01*
X233338334Y-148770446D01*
X233367818Y-148779952D01*
X233371869Y-148783779D01*
X233374478Y-148784816D01*
X233377629Y-148789219D01*
X233390978Y-148801827D01*
X233391071Y-148801735D01*
X233394322Y-148804986D01*
X233396432Y-148806979D01*
X233396818Y-148807482D01*
X233522259Y-148903736D01*
X233522260Y-148903736D01*
X233522261Y-148903737D01*
X233592968Y-148933024D01*
X233664760Y-148962762D01*
X233666057Y-148963299D01*
X233678330Y-148973189D01*
X233693092Y-148978725D01*
X233704980Y-148994665D01*
X233720461Y-149007140D01*
X233725438Y-149022095D01*
X233734864Y-149034733D01*
X233736247Y-149054569D01*
X233742526Y-149073434D01*
X233738627Y-149088708D01*
X233739724Y-149104433D01*
X233730164Y-149121866D01*
X233725247Y-149141133D01*
X233713277Y-149152661D01*
X233706130Y-149165697D01*
X233685374Y-149179539D01*
X233677838Y-149186798D01*
X233672093Y-149189921D01*
X233547659Y-149241464D01*
X233475574Y-149296775D01*
X233467032Y-149301421D01*
X233441999Y-149306819D01*
X233418116Y-149316053D01*
X233408414Y-149314063D01*
X233398733Y-149316151D01*
X233374754Y-149307158D01*
X233349671Y-149302014D01*
X233342586Y-149295095D01*
X233333312Y-149291618D01*
X233318001Y-149271089D01*
X233310109Y-149263383D01*
X233307669Y-149265211D01*
X233216190Y-149143013D01*
X233156712Y-149098487D01*
X233114841Y-149042553D01*
X233109857Y-148972861D01*
X233123488Y-148937476D01*
X233131690Y-148923190D01*
X233148198Y-148906683D01*
X233188478Y-148824288D01*
X233190524Y-148820725D01*
X233212891Y-148799295D01*
X233233785Y-148776427D01*
X233237902Y-148775334D01*
X233240977Y-148772389D01*
X233271376Y-148766454D01*
X233301319Y-148758512D01*
X233305372Y-148759818D01*
G37*
%TD.AperFunction*%
%TA.AperFunction,Conductor*%
G36*
X229852039Y-146723385D02*
G01*
X229897794Y-146776189D01*
X229909000Y-146827700D01*
X229909000Y-147526200D01*
X229889315Y-147593239D01*
X229836511Y-147638994D01*
X229785000Y-147650200D01*
X229659000Y-147650200D01*
X229659000Y-147776200D01*
X229639315Y-147843239D01*
X229586511Y-147888994D01*
X229535000Y-147900200D01*
X228259000Y-147900200D01*
X228259000Y-148438000D01*
X228239315Y-148505039D01*
X228186511Y-148550794D01*
X228135000Y-148562000D01*
X227305165Y-148562000D01*
X227238126Y-148542315D01*
X227192371Y-148489511D01*
X227182427Y-148420353D01*
X227211452Y-148356797D01*
X227217484Y-148350319D01*
X227928809Y-147638994D01*
X228131285Y-147436518D01*
X228192607Y-147403034D01*
X228218965Y-147400200D01*
X229409000Y-147400200D01*
X229409000Y-146827700D01*
X229428685Y-146760661D01*
X229481489Y-146714906D01*
X229533000Y-146703700D01*
X229785000Y-146703700D01*
X229852039Y-146723385D01*
G37*
%TD.AperFunction*%
%TA.AperFunction,Conductor*%
G36*
X228226334Y-145421017D02*
G01*
X228282267Y-145462889D01*
X228306684Y-145528353D01*
X228307000Y-145537198D01*
X228307000Y-145646170D01*
X228307001Y-145646187D01*
X228317494Y-145748897D01*
X228349985Y-145846949D01*
X228352387Y-145916778D01*
X228319960Y-145973634D01*
X227234526Y-147059069D01*
X227173203Y-147092554D01*
X227103511Y-147087570D01*
X227047578Y-147045698D01*
X227023161Y-146980234D01*
X227022853Y-146970018D01*
X227027377Y-146567437D01*
X227047814Y-146500624D01*
X227063680Y-146481159D01*
X228095324Y-145449515D01*
X228156642Y-145416033D01*
X228226334Y-145421017D01*
G37*
%TD.AperFunction*%
%TD*%
M02*
